<?xml version="1.0" encoding="UTF-8"?>
<svg xmlns="http://www.w3.org/2000/svg" viewBox="0 0 1280 296" width="1280" height="296" font-family="system-ui, sans-serif" font-size="12"><style>
  :root {
    --bg: #ffffff; --fg: #1a1a1a; --muted: #666; --grid: #e3e3e3; --lane: #f0f0f0;
    --proc: #3b82f6; --proc-fg: #ffffff; --xfer: #f59e0b; --xfer-fg: #3a2a00;
    --ghost: #f59e0b33; --arrow: #9333ea; --now: #dc2626;
  }
  @media (prefers-color-scheme: dark) {
    :root {
      --bg: #0f1115; --fg: #e6e6e6; --muted: #9aa0a6; --grid: #262a31; --lane: #1a1d23;
      --proc: #60a5fa; --proc-fg: #06131f; --xfer: #fbbf24; --xfer-fg: #241a00;
      --ghost: #fbbf2433; --arrow: #c084fc; --now: #f87171;
    }
  }
  .bg { fill: var(--bg); }
  .title { font-size: 15px; font-weight: 600; fill: var(--fg); }
  .subtitle { font-size: 12px; fill: var(--muted); }
  .grid { stroke: var(--grid); stroke-width: 1; }
  .lane { stroke: var(--lane); stroke-width: 1; }
  .tick, .axis { fill: var(--muted); }
  .lanelabel { fill: var(--fg); }
  .bar.proc { fill: var(--proc); }
  .bar.xfer { fill: var(--xfer); }
  .bar.xfer-ghost { fill: var(--ghost); }
  .barlabel.proc { fill: var(--proc-fg); }
  .barlabel.xfer { fill: var(--xfer-fg); }
  .arrow { stroke: var(--arrow); stroke-width: 1.3; fill: none; opacity: 0.8; }
  .arrowhead { fill: var(--arrow); }
  .now { stroke: var(--now); stroke-width: 1.5; stroke-dasharray: 4 3; }
  .nowlabel { fill: var(--now); }
</style><rect class="bg" x="0" y="0" width="1280" height="296"/><text class="title" x="16" y="24">Schedule &#8212; station view</text><text class="subtitle" x="16" y="40">makespan 88 second</text><defs><marker id="ah" markerWidth="8" markerHeight="8" refX="7" refY="3" orient="auto"><path d="M0,0 L7,3 L0,6 Z" class="arrowhead"/></marker></defs><g transform="translate(0,48)"><line class="grid" x1="200.0" y1="34.0" x2="200.0" y2="268.0"/><text class="tick" x="200.0" y="28.0" text-anchor="middle">0</text><line class="grid" x1="320.0" y1="34.0" x2="320.0" y2="268.0"/><text class="tick" x="320.0" y="28.0" text-anchor="middle">10</text><line class="grid" x1="440.0" y1="34.0" x2="440.0" y2="268.0"/><text class="tick" x="440.0" y="28.0" text-anchor="middle">20</text><line class="grid" x1="560.0" y1="34.0" x2="560.0" y2="268.0"/><text class="tick" x="560.0" y="28.0" text-anchor="middle">30</text><line class="grid" x1="680.0" y1="34.0" x2="680.0" y2="268.0"/><text class="tick" x="680.0" y="28.0" text-anchor="middle">40</text><line class="grid" x1="800.0" y1="34.0" x2="800.0" y2="268.0"/><text class="tick" x="800.0" y="28.0" text-anchor="middle">50</text><line class="grid" x1="920.0" y1="34.0" x2="920.0" y2="268.0"/><text class="tick" x="920.0" y="28.0" text-anchor="middle">60</text><line class="grid" x1="1040.0" y1="34.0" x2="1040.0" y2="268.0"/><text class="tick" x="1040.0" y="28.0" text-anchor="middle">70</text><line class="grid" x1="1160.0" y1="34.0" x2="1160.0" y2="268.0"/><text class="tick" x="1160.0" y="28.0" text-anchor="middle">80</text><text class="axis" x="200.0" y="288.0">time (second)</text><line class="lane" x1="0" y1="70.0" x2="1280.0" y2="70.0"/><text class="lanelabel" x="190.0" y="59.0" text-anchor="end">biomek2000_a3</text><line class="lane" x1="0" y1="100.0" x2="1280.0" y2="100.0"/><text class="lanelabel" x="190.0" y="89.0" text-anchor="end">biomek2000_a4</text><line class="lane" x1="0" y1="130.0" x2="1280.0" y2="130.0"/><text class="lanelabel" x="190.0" y="119.0" text-anchor="end">motoman</text><line class="lane" x1="0" y1="160.0" x2="1280.0" y2="160.0"/><text class="lanelabel" x="190.0" y="149.0" text-anchor="end">prep</text><line class="lane" x1="0" y1="190.0" x2="1280.0" y2="190.0"/><text class="lanelabel" x="190.0" y="179.0" text-anchor="end">reformatter</text><line class="lane" x1="0" y1="220.0" x2="1280.0" y2="220.0"/><text class="lanelabel" x="190.0" y="209.0" text-anchor="end">transport (transporter)</text><rect class="bar proc" x="200.0" y="135.0" width="12.0" height="20" rx="3"/><rect class="bar xfer" x="212.0" y="195.0" width="72.0" height="20" rx="3"/><text class="barlabel xfer" x="216.0" y="209.0">▸ Biomek…</text><rect class="bar xfer-ghost" x="212.0" y="135.0" width="72.0" height="20" rx="3"/><rect class="bar xfer-ghost" x="212.0" y="45.0" width="72.0" height="20" rx="3"/><rect class="bar xfer" x="284.0" y="195.0" width="24.0" height="20" rx="3"/><rect class="bar xfer-ghost" x="284.0" y="135.0" width="24.0" height="20" rx="3"/><rect class="bar xfer-ghost" x="284.0" y="165.0" width="24.0" height="20" rx="3"/><rect class="bar proc" x="284.0" y="45.0" width="288.0" height="20" rx="3"/><text class="barlabel proc" x="288.0" y="59.0">BiomekA3_24</text><rect class="bar xfer" x="308.0" y="195.0" width="36.0" height="20" rx="3"/><text class="barlabel xfer" x="312.0" y="209.0">▸ M…</text><rect class="bar xfer-ghost" x="308.0" y="135.0" width="36.0" height="20" rx="3"/><rect class="bar xfer-ghost" x="308.0" y="105.0" width="36.0" height="20" rx="3"/><rect class="bar proc" x="308.0" y="165.0" width="144.0" height="20" rx="3"/><text class="barlabel proc" x="312.0" y="179.0">Reformatter12</text><rect class="bar proc" x="344.0" y="105.0" width="84.0" height="20" rx="3"/><text class="barlabel proc" x="348.0" y="119.0">Motoman7</text><rect class="bar xfer" x="428.0" y="195.0" width="36.0" height="20" rx="3"/><text class="barlabel xfer" x="432.0" y="209.0">▸ B…</text><rect class="bar xfer-ghost" x="428.0" y="105.0" width="36.0" height="20" rx="3"/><rect class="bar xfer-ghost" x="428.0" y="75.0" width="36.0" height="20" rx="3"/><rect class="bar xfer" x="464.0" y="195.0" width="2.0" height="20" rx="3"/><rect class="bar xfer-ghost" x="464.0" y="165.0" width="2.0" height="20" rx="3"/><rect class="bar xfer-ghost" x="464.0" y="165.0" width="2.0" height="20" rx="3"/><rect class="bar xfer" x="464.0" y="195.0" width="24.0" height="20" rx="3"/><rect class="bar xfer-ghost" x="464.0" y="105.0" width="24.0" height="20" rx="3"/><rect class="bar xfer-ghost" x="464.0" y="165.0" width="24.0" height="20" rx="3"/><rect class="bar xfer" x="488.0" y="195.0" width="24.0" height="20" rx="3"/><rect class="bar xfer-ghost" x="488.0" y="165.0" width="24.0" height="20" rx="3"/><rect class="bar xfer-ghost" x="488.0" y="75.0" width="24.0" height="20" rx="3"/><rect class="bar proc" x="512.0" y="75.0" width="192.0" height="20" rx="3"/><text class="barlabel proc" x="516.0" y="89.0">BiomekA4_16</text><rect class="bar xfer" x="572.0" y="195.0" width="60.0" height="20" rx="3"/><text class="barlabel xfer" x="576.0" y="209.0">▸ Refor…</text><rect class="bar xfer-ghost" x="572.0" y="45.0" width="60.0" height="20" rx="3"/><rect class="bar xfer-ghost" x="572.0" y="165.0" width="60.0" height="20" rx="3"/><rect class="bar proc" x="632.0" y="165.0" width="240.0" height="20" rx="3"/><text class="barlabel proc" x="636.0" y="179.0">Reformatter20</text><rect class="bar xfer" x="872.0" y="195.0" width="2.0" height="20" rx="3"/><rect class="bar xfer-ghost" x="872.0" y="165.0" width="2.0" height="20" rx="3"/><rect class="bar xfer-ghost" x="872.0" y="165.0" width="2.0" height="20" rx="3"/><rect class="bar xfer" x="872.0" y="195.0" width="60.0" height="20" rx="3"/><text class="barlabel xfer" x="876.0" y="209.0">▸ Biome…</text><rect class="bar xfer-ghost" x="872.0" y="165.0" width="60.0" height="20" rx="3"/><rect class="bar xfer-ghost" x="872.0" y="45.0" width="60.0" height="20" rx="3"/><rect class="bar xfer" x="932.0" y="195.0" width="24.0" height="20" rx="3"/><rect class="bar xfer-ghost" x="932.0" y="75.0" width="24.0" height="20" rx="3"/><rect class="bar xfer-ghost" x="932.0" y="165.0" width="24.0" height="20" rx="3"/><rect class="bar proc" x="932.0" y="45.0" width="228.0" height="20" rx="3"/><text class="barlabel proc" x="936.0" y="59.0">BiomekA3_19</text><rect class="bar xfer" x="1160.0" y="195.0" width="60.0" height="20" rx="3"/><text class="barlabel xfer" x="1164.0" y="209.0">▸ Refor…</text><rect class="bar xfer-ghost" x="1160.0" y="45.0" width="60.0" height="20" rx="3"/><rect class="bar xfer-ghost" x="1160.0" y="165.0" width="60.0" height="20" rx="3"/><rect class="bar proc" x="1220.0" y="165.0" width="36.0" height="20" rx="3"/><text class="barlabel proc" x="1224.0" y="179.0">Ref…</text></g></svg>
