<?xml version="1.0" encoding="UTF-8"?>
<svg xmlns="http://www.w3.org/2000/svg" viewBox="0 0 824 1496" width="824" height="1496" font-family="system-ui, sans-serif" font-size="12"><text fill="#1a1a1a" font-size="15" font-weight="600" x="16" y="24">Schedule &#8212; workflow view</text><text fill="#666666" x="16" y="40">makespan 50 second</text><defs><marker id="ah" markerWidth="8" markerHeight="8" refX="7" refY="3" orient="auto"><path d="M0,0 L7,3 L0,6 Z" fill="#9333ea"/></marker></defs><g transform="translate(0,48)"><line stroke="#b3b3b3" stroke-width="1" x1="200.0" y1="34.0" x2="200.0" y2="1420.0"/><text fill="#666666" x="200.0" y="28.0" text-anchor="middle">0</text><line stroke="#b3b3b3" stroke-width="1" x1="260.0" y1="34.0" x2="260.0" y2="1420.0"/><text fill="#666666" x="260.0" y="28.0" text-anchor="middle">5</text><line stroke="#b3b3b3" stroke-width="1" x1="320.0" y1="34.0" x2="320.0" y2="1420.0"/><text fill="#666666" x="320.0" y="28.0" text-anchor="middle">10</text><line stroke="#b3b3b3" stroke-width="1" x1="380.0" y1="34.0" x2="380.0" y2="1420.0"/><text fill="#666666" x="380.0" y="28.0" text-anchor="middle">15</text><line stroke="#b3b3b3" stroke-width="1" x1="440.0" y1="34.0" x2="440.0" y2="1420.0"/><text fill="#666666" x="440.0" y="28.0" text-anchor="middle">20</text><line stroke="#b3b3b3" stroke-width="1" x1="500.0" y1="34.0" x2="500.0" y2="1420.0"/><text fill="#666666" x="500.0" y="28.0" text-anchor="middle">25</text><line stroke="#b3b3b3" stroke-width="1" x1="560.0" y1="34.0" x2="560.0" y2="1420.0"/><text fill="#666666" x="560.0" y="28.0" text-anchor="middle">30</text><line stroke="#b3b3b3" stroke-width="1" x1="620.0" y1="34.0" x2="620.0" y2="1420.0"/><text fill="#666666" x="620.0" y="28.0" text-anchor="middle">35</text><line stroke="#b3b3b3" stroke-width="1" x1="680.0" y1="34.0" x2="680.0" y2="1420.0"/><text fill="#666666" x="680.0" y="28.0" text-anchor="middle">40</text><line stroke="#b3b3b3" stroke-width="1" x1="740.0" y1="34.0" x2="740.0" y2="1420.0"/><text fill="#666666" x="740.0" y="28.0" text-anchor="middle">45</text><line stroke="#b3b3b3" stroke-width="1" x1="800.0" y1="34.0" x2="800.0" y2="1420.0"/><text fill="#666666" x="800.0" y="28.0" text-anchor="middle">50</text><text fill="#666666" x="200.0" y="1440.0">time (second)</text><line stroke="#d9d9d9" stroke-width="1" x1="0" y1="70.0" x2="824.0" y2="70.0"/><text fill="#1a1a1a" x="190.0" y="59.0" text-anchor="end">source_b1</text><line stroke="#d9d9d9" stroke-width="1" x1="0" y1="100.0" x2="824.0" y2="100.0"/><text fill="#1a1a1a" x="190.0" y="89.0" text-anchor="end">&gt; peal_b1_r1</text><line stroke="#d9d9d9" stroke-width="1" x1="0" y1="130.0" x2="824.0" y2="130.0"/><text fill="#1a1a1a" x="190.0" y="119.0" text-anchor="end">peal_b1_r1</text><line stroke="#d9d9d9" stroke-width="1" x1="0" y1="160.0" x2="824.0" y2="160.0"/><text fill="#1a1a1a" x="190.0" y="149.0" text-anchor="end">source_b2</text><line stroke="#d9d9d9" stroke-width="1" x1="0" y1="190.0" x2="824.0" y2="190.0"/><text fill="#1a1a1a" x="190.0" y="179.0" text-anchor="end">&gt; dispense_b1_r1</text><line stroke="#d9d9d9" stroke-width="1" x1="0" y1="220.0" x2="824.0" y2="220.0"/><text fill="#1a1a1a" x="190.0" y="209.0" text-anchor="end">&gt; peal_b2_r1</text><line stroke="#d9d9d9" stroke-width="1" x1="0" y1="250.0" x2="824.0" y2="250.0"/><text fill="#1a1a1a" x="190.0" y="239.0" text-anchor="end">dispense_b1_r1</text><line stroke="#d9d9d9" stroke-width="1" x1="0" y1="280.0" x2="824.0" y2="280.0"/><text fill="#1a1a1a" x="190.0" y="269.0" text-anchor="end">peal_b2_r1</text><line stroke="#d9d9d9" stroke-width="1" x1="0" y1="310.0" x2="824.0" y2="310.0"/><text fill="#1a1a1a" x="190.0" y="299.0" text-anchor="end">&gt; seal_b1_r1</text><line stroke="#d9d9d9" stroke-width="1" x1="0" y1="340.0" x2="824.0" y2="340.0"/><text fill="#1a1a1a" x="190.0" y="329.0" text-anchor="end">seal_b1_r1</text><line stroke="#d9d9d9" stroke-width="1" x1="0" y1="370.0" x2="824.0" y2="370.0"/><text fill="#1a1a1a" x="190.0" y="359.0" text-anchor="end">&gt; dispense_b2_r1</text><line stroke="#d9d9d9" stroke-width="1" x1="0" y1="400.0" x2="824.0" y2="400.0"/><text fill="#1a1a1a" x="190.0" y="389.0" text-anchor="end">&gt; thermal_b1_r1</text><line stroke="#d9d9d9" stroke-width="1" x1="0" y1="430.0" x2="824.0" y2="430.0"/><text fill="#1a1a1a" x="190.0" y="419.0" text-anchor="end">dispense_b2_r1</text><line stroke="#d9d9d9" stroke-width="1" x1="0" y1="460.0" x2="824.0" y2="460.0"/><text fill="#1a1a1a" x="190.0" y="449.0" text-anchor="end">thermal_b1_r1</text><line stroke="#d9d9d9" stroke-width="1" x1="0" y1="490.0" x2="824.0" y2="490.0"/><text fill="#1a1a1a" x="190.0" y="479.0" text-anchor="end">&gt; seal_b2_r1</text><line stroke="#d9d9d9" stroke-width="1" x1="0" y1="520.0" x2="824.0" y2="520.0"/><text fill="#1a1a1a" x="190.0" y="509.0" text-anchor="end">seal_b2_r1</text><line stroke="#d9d9d9" stroke-width="1" x1="0" y1="550.0" x2="824.0" y2="550.0"/><text fill="#1a1a1a" x="190.0" y="539.0" text-anchor="end">&gt; thermal_b2_r1</text><line stroke="#d9d9d9" stroke-width="1" x1="0" y1="580.0" x2="824.0" y2="580.0"/><text fill="#1a1a1a" x="190.0" y="569.0" text-anchor="end">thermal_b2_r1</text><line stroke="#d9d9d9" stroke-width="1" x1="0" y1="610.0" x2="824.0" y2="610.0"/><text fill="#1a1a1a" x="190.0" y="599.0" text-anchor="end">&gt; rotate_b1_r1</text><line stroke="#d9d9d9" stroke-width="1" x1="0" y1="640.0" x2="824.0" y2="640.0"/><text fill="#1a1a1a" x="190.0" y="629.0" text-anchor="end">rotate_b1_r1</text><line stroke="#d9d9d9" stroke-width="1" x1="0" y1="670.0" x2="824.0" y2="670.0"/><text fill="#1a1a1a" x="190.0" y="659.0" text-anchor="end">&gt; peal_b1_r2</text><line stroke="#d9d9d9" stroke-width="1" x1="0" y1="700.0" x2="824.0" y2="700.0"/><text fill="#1a1a1a" x="190.0" y="689.0" text-anchor="end">peal_b1_r2</text><line stroke="#d9d9d9" stroke-width="1" x1="0" y1="730.0" x2="824.0" y2="730.0"/><text fill="#1a1a1a" x="190.0" y="719.0" text-anchor="end">&gt; dispense_b1_r2</text><line stroke="#d9d9d9" stroke-width="1" x1="0" y1="760.0" x2="824.0" y2="760.0"/><text fill="#1a1a1a" x="190.0" y="749.0" text-anchor="end">&gt; rotate_b2_r1</text><line stroke="#d9d9d9" stroke-width="1" x1="0" y1="790.0" x2="824.0" y2="790.0"/><text fill="#1a1a1a" x="190.0" y="779.0" text-anchor="end">dispense_b1_r2</text><line stroke="#d9d9d9" stroke-width="1" x1="0" y1="820.0" x2="824.0" y2="820.0"/><text fill="#1a1a1a" x="190.0" y="809.0" text-anchor="end">rotate_b2_r1</text><line stroke="#d9d9d9" stroke-width="1" x1="0" y1="850.0" x2="824.0" y2="850.0"/><text fill="#1a1a1a" x="190.0" y="839.0" text-anchor="end">&gt; peal_b2_r2</text><line stroke="#d9d9d9" stroke-width="1" x1="0" y1="880.0" x2="824.0" y2="880.0"/><text fill="#1a1a1a" x="190.0" y="869.0" text-anchor="end">peal_b2_r2</text><line stroke="#d9d9d9" stroke-width="1" x1="0" y1="910.0" x2="824.0" y2="910.0"/><text fill="#1a1a1a" x="190.0" y="899.0" text-anchor="end">&gt; seal_b1_r2</text><line stroke="#d9d9d9" stroke-width="1" x1="0" y1="940.0" x2="824.0" y2="940.0"/><text fill="#1a1a1a" x="190.0" y="929.0" text-anchor="end">seal_b1_r2</text><line stroke="#d9d9d9" stroke-width="1" x1="0" y1="970.0" x2="824.0" y2="970.0"/><text fill="#1a1a1a" x="190.0" y="959.0" text-anchor="end">&gt; dispense_b2_r2</text><line stroke="#d9d9d9" stroke-width="1" x1="0" y1="1000.0" x2="824.0" y2="1000.0"/><text fill="#1a1a1a" x="190.0" y="989.0" text-anchor="end">&gt; thermal_b1_r2</text><line stroke="#d9d9d9" stroke-width="1" x1="0" y1="1030.0" x2="824.0" y2="1030.0"/><text fill="#1a1a1a" x="190.0" y="1019.0" text-anchor="end">dispense_b2_r2</text><line stroke="#d9d9d9" stroke-width="1" x1="0" y1="1060.0" x2="824.0" y2="1060.0"/><text fill="#1a1a1a" x="190.0" y="1049.0" text-anchor="end">thermal_b1_r2</text><line stroke="#d9d9d9" stroke-width="1" x1="0" y1="1090.0" x2="824.0" y2="1090.0"/><text fill="#1a1a1a" x="190.0" y="1079.0" text-anchor="end">&gt; seal_b2_r2</text><line stroke="#d9d9d9" stroke-width="1" x1="0" y1="1120.0" x2="824.0" y2="1120.0"/><text fill="#1a1a1a" x="190.0" y="1109.0" text-anchor="end">seal_b2_r2</text><line stroke="#d9d9d9" stroke-width="1" x1="0" y1="1150.0" x2="824.0" y2="1150.0"/><text fill="#1a1a1a" x="190.0" y="1139.0" text-anchor="end">&gt; thermal_b2_r2</text><line stroke="#d9d9d9" stroke-width="1" x1="0" y1="1180.0" x2="824.0" y2="1180.0"/><text fill="#1a1a1a" x="190.0" y="1169.0" text-anchor="end">thermal_b2_r2</text><line stroke="#d9d9d9" stroke-width="1" x1="0" y1="1210.0" x2="824.0" y2="1210.0"/><text fill="#1a1a1a" x="190.0" y="1199.0" text-anchor="end">&gt; rotate_b1_r2</text><line stroke="#d9d9d9" stroke-width="1" x1="0" y1="1240.0" x2="824.0" y2="1240.0"/><text fill="#1a1a1a" x="190.0" y="1229.0" text-anchor="end">rotate_b1_r2</text><line stroke="#d9d9d9" stroke-width="1" x1="0" y1="1270.0" x2="824.0" y2="1270.0"/><text fill="#1a1a1a" x="190.0" y="1259.0" text-anchor="end">&gt; sink_b1</text><line stroke="#d9d9d9" stroke-width="1" x1="0" y1="1300.0" x2="824.0" y2="1300.0"/><text fill="#1a1a1a" x="190.0" y="1289.0" text-anchor="end">sink_b1</text><line stroke="#d9d9d9" stroke-width="1" x1="0" y1="1330.0" x2="824.0" y2="1330.0"/><text fill="#1a1a1a" x="190.0" y="1319.0" text-anchor="end">&gt; rotate_b2_r2</text><line stroke="#d9d9d9" stroke-width="1" x1="0" y1="1360.0" x2="824.0" y2="1360.0"/><text fill="#1a1a1a" x="190.0" y="1349.0" text-anchor="end">rotate_b2_r2</text><line stroke="#d9d9d9" stroke-width="1" x1="0" y1="1390.0" x2="824.0" y2="1390.0"/><text fill="#1a1a1a" x="190.0" y="1379.0" text-anchor="end">&gt; sink_b2</text><line stroke="#d9d9d9" stroke-width="1" x1="0" y1="1420.0" x2="824.0" y2="1420.0"/><text fill="#1a1a1a" x="190.0" y="1409.0" text-anchor="end">sink_b2</text><path fill="none" stroke="#9333ea" stroke-width="1.3" stroke-opacity="0.8" d="M212.0,55.0 C228.0,55.0 196.0,85.0 212.0,85.0" marker-end="url(#ah)"/><path fill="none" stroke="#9333ea" stroke-width="1.3" stroke-opacity="0.8" d="M224.0,85.0 C240.0,85.0 208.0,115.0 224.0,115.0" marker-end="url(#ah)"/><path fill="none" stroke="#9333ea" stroke-width="1.3" stroke-opacity="0.8" d="M236.0,115.0 C252.0,115.0 220.0,175.0 236.0,175.0" marker-end="url(#ah)"/><path fill="none" stroke="#9333ea" stroke-width="1.3" stroke-opacity="0.8" d="M248.0,175.0 C264.0,175.0 232.0,235.0 248.0,235.0" marker-end="url(#ah)"/><path fill="none" stroke="#9333ea" stroke-width="1.3" stroke-opacity="0.8" d="M236.0,145.0 C252.0,145.0 232.0,205.0 248.0,205.0" marker-end="url(#ah)"/><path fill="none" stroke="#9333ea" stroke-width="1.3" stroke-opacity="0.8" d="M260.0,205.0 C276.0,205.0 244.0,265.0 260.0,265.0" marker-end="url(#ah)"/><path fill="none" stroke="#9333ea" stroke-width="1.3" stroke-opacity="0.8" d="M284.0,235.0 C300.0,235.0 268.0,295.0 284.0,295.0" marker-end="url(#ah)"/><path fill="none" stroke="#9333ea" stroke-width="1.3" stroke-opacity="0.8" d="M296.0,295.0 C312.0,295.0 280.0,325.0 296.0,325.0" marker-end="url(#ah)"/><path fill="none" stroke="#9333ea" stroke-width="1.3" stroke-opacity="0.8" d="M272.0,265.0 C288.0,265.0 280.0,355.0 296.0,355.0" marker-end="url(#ah)"/><path fill="none" stroke="#9333ea" stroke-width="1.3" stroke-opacity="0.8" d="M308.0,355.0 C324.0,355.0 292.0,415.0 308.0,415.0" marker-end="url(#ah)"/><path fill="none" stroke="#9333ea" stroke-width="1.3" stroke-opacity="0.8" d="M308.0,325.0 C324.0,325.0 292.0,385.0 308.0,385.0" marker-end="url(#ah)"/><path fill="none" stroke="#9333ea" stroke-width="1.3" stroke-opacity="0.8" d="M320.0,385.0 C336.0,385.0 304.0,445.0 320.0,445.0" marker-end="url(#ah)"/><path fill="none" stroke="#9333ea" stroke-width="1.3" stroke-opacity="0.8" d="M344.0,415.0 C360.0,415.0 328.0,475.0 344.0,475.0" marker-end="url(#ah)"/><path fill="none" stroke="#9333ea" stroke-width="1.3" stroke-opacity="0.8" d="M356.0,475.0 C372.0,475.0 340.0,505.0 356.0,505.0" marker-end="url(#ah)"/><path fill="none" stroke="#9333ea" stroke-width="1.3" stroke-opacity="0.8" d="M368.0,505.0 C384.0,505.0 352.0,535.0 368.0,535.0" marker-end="url(#ah)"/><path fill="none" stroke="#9333ea" stroke-width="1.3" stroke-opacity="0.8" d="M380.0,535.0 C396.0,535.0 364.0,565.0 380.0,565.0" marker-end="url(#ah)"/><path fill="none" stroke="#9333ea" stroke-width="1.3" stroke-opacity="0.8" d="M440.0,445.0 C456.0,445.0 424.0,595.0 440.0,595.0" marker-end="url(#ah)"/><path fill="none" stroke="#9333ea" stroke-width="1.3" stroke-opacity="0.8" d="M452.0,595.0 C468.0,595.0 436.0,625.0 452.0,625.0" marker-end="url(#ah)"/><path fill="none" stroke="#9333ea" stroke-width="1.3" stroke-opacity="0.8" d="M464.0,625.0 C480.0,625.0 448.0,655.0 464.0,655.0" marker-end="url(#ah)"/><path fill="none" stroke="#9333ea" stroke-width="1.3" stroke-opacity="0.8" d="M476.0,655.0 C492.0,655.0 460.0,685.0 476.0,685.0" marker-end="url(#ah)"/><path fill="none" stroke="#9333ea" stroke-width="1.3" stroke-opacity="0.8" d="M488.0,685.0 C504.0,685.0 472.0,715.0 488.0,715.0" marker-end="url(#ah)"/><path fill="none" stroke="#9333ea" stroke-width="1.3" stroke-opacity="0.8" d="M500.0,715.0 C516.0,715.0 484.0,775.0 500.0,775.0" marker-end="url(#ah)"/><path fill="none" stroke="#9333ea" stroke-width="1.3" stroke-opacity="0.8" d="M500.0,565.0 C516.0,565.0 484.0,745.0 500.0,745.0" marker-end="url(#ah)"/><path fill="none" stroke="#9333ea" stroke-width="1.3" stroke-opacity="0.8" d="M512.0,745.0 C528.0,745.0 496.0,805.0 512.0,805.0" marker-end="url(#ah)"/><path fill="none" stroke="#9333ea" stroke-width="1.3" stroke-opacity="0.8" d="M524.0,805.0 C540.0,805.0 508.0,835.0 524.0,835.0" marker-end="url(#ah)"/><path fill="none" stroke="#9333ea" stroke-width="1.3" stroke-opacity="0.8" d="M536.0,835.0 C552.0,835.0 520.0,865.0 536.0,865.0" marker-end="url(#ah)"/><path fill="none" stroke="#9333ea" stroke-width="1.3" stroke-opacity="0.8" d="M536.0,775.0 C552.0,775.0 520.0,895.0 536.0,895.0" marker-end="url(#ah)"/><path fill="none" stroke="#9333ea" stroke-width="1.3" stroke-opacity="0.8" d="M548.0,895.0 C564.0,895.0 532.0,925.0 548.0,925.0" marker-end="url(#ah)"/><path fill="none" stroke="#9333ea" stroke-width="1.3" stroke-opacity="0.8" d="M548.0,865.0 C564.0,865.0 532.0,955.0 548.0,955.0" marker-end="url(#ah)"/><path fill="none" stroke="#9333ea" stroke-width="1.3" stroke-opacity="0.8" d="M560.0,955.0 C576.0,955.0 544.0,1015.0 560.0,1015.0" marker-end="url(#ah)"/><path fill="none" stroke="#9333ea" stroke-width="1.3" stroke-opacity="0.8" d="M560.0,925.0 C576.0,925.0 544.0,985.0 560.0,985.0" marker-end="url(#ah)"/><path fill="none" stroke="#9333ea" stroke-width="1.3" stroke-opacity="0.8" d="M572.0,985.0 C588.0,985.0 556.0,1045.0 572.0,1045.0" marker-end="url(#ah)"/><path fill="none" stroke="#9333ea" stroke-width="1.3" stroke-opacity="0.8" d="M596.0,1015.0 C612.0,1015.0 580.0,1075.0 596.0,1075.0" marker-end="url(#ah)"/><path fill="none" stroke="#9333ea" stroke-width="1.3" stroke-opacity="0.8" d="M608.0,1075.0 C624.0,1075.0 592.0,1105.0 608.0,1105.0" marker-end="url(#ah)"/><path fill="none" stroke="#9333ea" stroke-width="1.3" stroke-opacity="0.8" d="M620.0,1105.0 C636.0,1105.0 604.0,1135.0 620.0,1135.0" marker-end="url(#ah)"/><path fill="none" stroke="#9333ea" stroke-width="1.3" stroke-opacity="0.8" d="M632.0,1135.0 C648.0,1135.0 616.0,1165.0 632.0,1165.0" marker-end="url(#ah)"/><path fill="none" stroke="#9333ea" stroke-width="1.3" stroke-opacity="0.8" d="M692.0,1045.0 C708.0,1045.0 676.0,1195.0 692.0,1195.0" marker-end="url(#ah)"/><path fill="none" stroke="#9333ea" stroke-width="1.3" stroke-opacity="0.8" d="M704.0,1195.0 C720.0,1195.0 688.0,1225.0 704.0,1225.0" marker-end="url(#ah)"/><path fill="none" stroke="#9333ea" stroke-width="1.3" stroke-opacity="0.8" d="M716.0,1225.0 C732.0,1225.0 700.0,1255.0 716.0,1255.0" marker-end="url(#ah)"/><path fill="none" stroke="#9333ea" stroke-width="1.3" stroke-opacity="0.8" d="M728.0,1255.0 C744.0,1255.0 712.0,1285.0 728.0,1285.0" marker-end="url(#ah)"/><path fill="none" stroke="#9333ea" stroke-width="1.3" stroke-opacity="0.8" d="M752.0,1165.0 C768.0,1165.0 736.0,1315.0 752.0,1315.0" marker-end="url(#ah)"/><path fill="none" stroke="#9333ea" stroke-width="1.3" stroke-opacity="0.8" d="M764.0,1315.0 C780.0,1315.0 748.0,1345.0 764.0,1345.0" marker-end="url(#ah)"/><path fill="none" stroke="#9333ea" stroke-width="1.3" stroke-opacity="0.8" d="M776.0,1345.0 C792.0,1345.0 760.0,1375.0 776.0,1375.0" marker-end="url(#ah)"/><path fill="none" stroke="#9333ea" stroke-width="1.3" stroke-opacity="0.8" d="M788.0,1375.0 C804.0,1375.0 772.0,1405.0 788.0,1405.0" marker-end="url(#ah)"/><rect fill="#3b82f6" x="200.0" y="45.0" width="12.0" height="20" rx="3"/><rect fill="#f59e0b" x="212.0" y="75.0" width="12.0" height="20" rx="3"/><rect fill="#3b82f6" x="224.0" y="105.0" width="12.0" height="20" rx="3"/><rect fill="#3b82f6" x="224.0" y="135.0" width="12.0" height="20" rx="3"/><rect fill="#f59e0b" x="236.0" y="165.0" width="12.0" height="20" rx="3"/><rect fill="#f59e0b" x="248.0" y="195.0" width="12.0" height="20" rx="3"/><rect fill="#3b82f6" x="248.0" y="225.0" width="36.0" height="20" rx="3"/><text fill="#ffffff" x="252.0" y="239.0">dis…</text><rect fill="#3b82f6" x="260.0" y="255.0" width="12.0" height="20" rx="3"/><rect fill="#f59e0b" x="284.0" y="285.0" width="12.0" height="20" rx="3"/><rect fill="#3b82f6" x="296.0" y="315.0" width="12.0" height="20" rx="3"/><rect fill="#f59e0b" x="296.0" y="345.0" width="12.0" height="20" rx="3"/><rect fill="#f59e0b" x="308.0" y="375.0" width="12.0" height="20" rx="3"/><rect fill="#3b82f6" x="308.0" y="405.0" width="36.0" height="20" rx="3"/><text fill="#ffffff" x="312.0" y="419.0">dis…</text><rect fill="#3b82f6" x="320.0" y="435.0" width="120.0" height="20" rx="3"/><text fill="#ffffff" x="324.0" y="449.0">thermal_b1_r1</text><rect fill="#f59e0b" x="344.0" y="465.0" width="12.0" height="20" rx="3"/><rect fill="#3b82f6" x="356.0" y="495.0" width="12.0" height="20" rx="3"/><rect fill="#f59e0b" x="368.0" y="525.0" width="12.0" height="20" rx="3"/><rect fill="#3b82f6" x="380.0" y="555.0" width="120.0" height="20" rx="3"/><text fill="#ffffff" x="384.0" y="569.0">thermal_b2_r1</text><rect fill="#f59e0b" x="440.0" y="585.0" width="12.0" height="20" rx="3"/><rect fill="#3b82f6" x="452.0" y="615.0" width="12.0" height="20" rx="3"/><rect fill="#f59e0b" x="464.0" y="645.0" width="12.0" height="20" rx="3"/><rect fill="#3b82f6" x="476.0" y="675.0" width="12.0" height="20" rx="3"/><rect fill="#f59e0b" x="488.0" y="705.0" width="12.0" height="20" rx="3"/><rect fill="#f59e0b" x="500.0" y="735.0" width="12.0" height="20" rx="3"/><rect fill="#3b82f6" x="500.0" y="765.0" width="36.0" height="20" rx="3"/><text fill="#ffffff" x="504.0" y="779.0">dis…</text><rect fill="#3b82f6" x="512.0" y="795.0" width="12.0" height="20" rx="3"/><rect fill="#f59e0b" x="524.0" y="825.0" width="12.0" height="20" rx="3"/><rect fill="#3b82f6" x="536.0" y="855.0" width="12.0" height="20" rx="3"/><rect fill="#f59e0b" x="536.0" y="885.0" width="12.0" height="20" rx="3"/><rect fill="#3b82f6" x="548.0" y="915.0" width="12.0" height="20" rx="3"/><rect fill="#f59e0b" x="548.0" y="945.0" width="12.0" height="20" rx="3"/><rect fill="#f59e0b" x="560.0" y="975.0" width="12.0" height="20" rx="3"/><rect fill="#3b82f6" x="560.0" y="1005.0" width="36.0" height="20" rx="3"/><text fill="#ffffff" x="564.0" y="1019.0">dis…</text><rect fill="#3b82f6" x="572.0" y="1035.0" width="120.0" height="20" rx="3"/><text fill="#ffffff" x="576.0" y="1049.0">thermal_b1_r2</text><rect fill="#f59e0b" x="596.0" y="1065.0" width="12.0" height="20" rx="3"/><rect fill="#3b82f6" x="608.0" y="1095.0" width="12.0" height="20" rx="3"/><rect fill="#f59e0b" x="620.0" y="1125.0" width="12.0" height="20" rx="3"/><rect fill="#3b82f6" x="632.0" y="1155.0" width="120.0" height="20" rx="3"/><text fill="#ffffff" x="636.0" y="1169.0">thermal_b2_r2</text><rect fill="#f59e0b" x="692.0" y="1185.0" width="12.0" height="20" rx="3"/><rect fill="#3b82f6" x="704.0" y="1215.0" width="12.0" height="20" rx="3"/><rect fill="#f59e0b" x="716.0" y="1245.0" width="12.0" height="20" rx="3"/><rect fill="#3b82f6" x="728.0" y="1275.0" width="12.0" height="20" rx="3"/><rect fill="#f59e0b" x="752.0" y="1305.0" width="12.0" height="20" rx="3"/><rect fill="#3b82f6" x="764.0" y="1335.0" width="12.0" height="20" rx="3"/><rect fill="#f59e0b" x="776.0" y="1365.0" width="12.0" height="20" rx="3"/><rect fill="#3b82f6" x="788.0" y="1395.0" width="12.0" height="20" rx="3"/></g></svg>
