<?xml version="1.0" encoding="UTF-8"?>
<svg xmlns="http://www.w3.org/2000/svg" viewBox="0 0 824 356" width="824" height="356" font-family="system-ui, sans-serif" font-size="12"><text fill="#1a1a1a" font-size="15" font-weight="600" x="16" y="24">Schedule &#8212; device view</text><text fill="#666666" x="16" y="40">makespan 50 second</text><defs><marker id="ah" markerWidth="8" markerHeight="8" refX="7" refY="3" orient="auto"><path d="M0,0 L7,3 L0,6 Z" fill="#9333ea"/></marker></defs><g transform="translate(0,48)"><line stroke="#b3b3b3" stroke-width="1" x1="200.0" y1="34.0" x2="200.0" y2="280.0"/><text fill="#666666" x="200.0" y="28.0" text-anchor="middle">0</text><line stroke="#b3b3b3" stroke-width="1" x1="260.0" y1="34.0" x2="260.0" y2="280.0"/><text fill="#666666" x="260.0" y="28.0" text-anchor="middle">5</text><line stroke="#b3b3b3" stroke-width="1" x1="320.0" y1="34.0" x2="320.0" y2="280.0"/><text fill="#666666" x="320.0" y="28.0" text-anchor="middle">10</text><line stroke="#b3b3b3" stroke-width="1" x1="380.0" y1="34.0" x2="380.0" y2="280.0"/><text fill="#666666" x="380.0" y="28.0" text-anchor="middle">15</text><line stroke="#b3b3b3" stroke-width="1" x1="440.0" y1="34.0" x2="440.0" y2="280.0"/><text fill="#666666" x="440.0" y="28.0" text-anchor="middle">20</text><line stroke="#b3b3b3" stroke-width="1" x1="500.0" y1="34.0" x2="500.0" y2="280.0"/><text fill="#666666" x="500.0" y="28.0" text-anchor="middle">25</text><line stroke="#b3b3b3" stroke-width="1" x1="560.0" y1="34.0" x2="560.0" y2="280.0"/><text fill="#666666" x="560.0" y="28.0" text-anchor="middle">30</text><line stroke="#b3b3b3" stroke-width="1" x1="620.0" y1="34.0" x2="620.0" y2="280.0"/><text fill="#666666" x="620.0" y="28.0" text-anchor="middle">35</text><line stroke="#b3b3b3" stroke-width="1" x1="680.0" y1="34.0" x2="680.0" y2="280.0"/><text fill="#666666" x="680.0" y="28.0" text-anchor="middle">40</text><line stroke="#b3b3b3" stroke-width="1" x1="740.0" y1="34.0" x2="740.0" y2="280.0"/><text fill="#666666" x="740.0" y="28.0" text-anchor="middle">45</text><line stroke="#b3b3b3" stroke-width="1" x1="800.0" y1="34.0" x2="800.0" y2="280.0"/><text fill="#666666" x="800.0" y="28.0" text-anchor="middle">50</text><text fill="#666666" x="200.0" y="300.0">time (second)</text><line stroke="#d9d9d9" stroke-width="1" x1="0" y1="70.0" x2="824.0" y2="70.0"/><text fill="#1a1a1a" x="190.0" y="59.0" text-anchor="end">dispense</text><line stroke="#d9d9d9" stroke-width="1" x1="0" y1="100.0" x2="824.0" y2="100.0"/><text fill="#1a1a1a" x="190.0" y="89.0" text-anchor="end">loader</text><line stroke="#d9d9d9" stroke-width="1" x1="0" y1="130.0" x2="824.0" y2="130.0"/><text fill="#1a1a1a" x="190.0" y="119.0" text-anchor="end">peal</text><line stroke="#d9d9d9" stroke-width="1" x1="0" y1="160.0" x2="824.0" y2="160.0"/><text fill="#1a1a1a" x="190.0" y="149.0" text-anchor="end">rotate</text><line stroke="#d9d9d9" stroke-width="1" x1="0" y1="190.0" x2="824.0" y2="190.0"/><text fill="#1a1a1a" x="190.0" y="179.0" text-anchor="end">seal</text><line stroke="#d9d9d9" stroke-width="1" x1="0" y1="220.0" x2="824.0" y2="220.0"/><text fill="#1a1a1a" x="190.0" y="209.0" text-anchor="end">thermal_cycle_1</text><line stroke="#d9d9d9" stroke-width="1" x1="0" y1="250.0" x2="824.0" y2="250.0"/><text fill="#1a1a1a" x="190.0" y="239.0" text-anchor="end">thermal_cycle_2</text><line stroke="#d9d9d9" stroke-width="1" x1="0" y1="280.0" x2="824.0" y2="280.0"/><text fill="#1a1a1a" x="190.0" y="269.0" text-anchor="end">transport (transporter)</text><rect fill="#3b82f6" x="200.0" y="75.0" width="12.0" height="20" rx="3"/><rect fill="#f59e0b" x="212.0" y="255.0" width="12.0" height="20" rx="3"/><rect fill="#f59e0b" fill-opacity="0.2" x="212.0" y="75.0" width="12.0" height="20" rx="3"/><rect fill="#f59e0b" fill-opacity="0.2" x="212.0" y="105.0" width="12.0" height="20" rx="3"/><rect fill="#3b82f6" x="224.0" y="105.0" width="12.0" height="20" rx="3"/><rect fill="#3b82f6" x="224.0" y="75.0" width="12.0" height="20" rx="3"/><rect fill="#f59e0b" x="236.0" y="255.0" width="12.0" height="20" rx="3"/><rect fill="#f59e0b" fill-opacity="0.2" x="236.0" y="105.0" width="12.0" height="20" rx="3"/><rect fill="#f59e0b" fill-opacity="0.2" x="236.0" y="45.0" width="12.0" height="20" rx="3"/><rect fill="#f59e0b" x="248.0" y="255.0" width="12.0" height="20" rx="3"/><rect fill="#f59e0b" fill-opacity="0.2" x="248.0" y="75.0" width="12.0" height="20" rx="3"/><rect fill="#f59e0b" fill-opacity="0.2" x="248.0" y="105.0" width="12.0" height="20" rx="3"/><rect fill="#3b82f6" x="248.0" y="45.0" width="36.0" height="20" rx="3"/><text fill="#ffffff" x="252.0" y="59.0">dis…</text><rect fill="#3b82f6" x="260.0" y="105.0" width="12.0" height="20" rx="3"/><rect fill="#f59e0b" x="284.0" y="255.0" width="12.0" height="20" rx="3"/><rect fill="#f59e0b" fill-opacity="0.2" x="284.0" y="45.0" width="12.0" height="20" rx="3"/><rect fill="#f59e0b" fill-opacity="0.2" x="284.0" y="165.0" width="12.0" height="20" rx="3"/><rect fill="#3b82f6" x="296.0" y="165.0" width="12.0" height="20" rx="3"/><rect fill="#f59e0b" x="296.0" y="255.0" width="12.0" height="20" rx="3"/><rect fill="#f59e0b" fill-opacity="0.2" x="296.0" y="105.0" width="12.0" height="20" rx="3"/><rect fill="#f59e0b" fill-opacity="0.2" x="296.0" y="45.0" width="12.0" height="20" rx="3"/><rect fill="#f59e0b" x="308.0" y="255.0" width="12.0" height="20" rx="3"/><rect fill="#f59e0b" fill-opacity="0.2" x="308.0" y="165.0" width="12.0" height="20" rx="3"/><rect fill="#f59e0b" fill-opacity="0.2" x="308.0" y="195.0" width="12.0" height="20" rx="3"/><rect fill="#3b82f6" x="308.0" y="45.0" width="36.0" height="20" rx="3"/><text fill="#ffffff" x="312.0" y="59.0">dis…</text><rect fill="#3b82f6" x="320.0" y="195.0" width="120.0" height="20" rx="3"/><text fill="#ffffff" x="324.0" y="209.0">thermal_b1_r1</text><rect fill="#f59e0b" x="344.0" y="255.0" width="12.0" height="20" rx="3"/><rect fill="#f59e0b" fill-opacity="0.2" x="344.0" y="45.0" width="12.0" height="20" rx="3"/><rect fill="#f59e0b" fill-opacity="0.2" x="344.0" y="165.0" width="12.0" height="20" rx="3"/><rect fill="#3b82f6" x="356.0" y="165.0" width="12.0" height="20" rx="3"/><rect fill="#f59e0b" x="368.0" y="255.0" width="12.0" height="20" rx="3"/><rect fill="#f59e0b" fill-opacity="0.2" x="368.0" y="165.0" width="12.0" height="20" rx="3"/><rect fill="#f59e0b" fill-opacity="0.2" x="368.0" y="225.0" width="12.0" height="20" rx="3"/><rect fill="#3b82f6" x="380.0" y="225.0" width="120.0" height="20" rx="3"/><text fill="#ffffff" x="384.0" y="239.0">thermal_b2_r1</text><rect fill="#f59e0b" x="440.0" y="255.0" width="12.0" height="20" rx="3"/><rect fill="#f59e0b" fill-opacity="0.2" x="440.0" y="195.0" width="12.0" height="20" rx="3"/><rect fill="#f59e0b" fill-opacity="0.2" x="440.0" y="135.0" width="12.0" height="20" rx="3"/><rect fill="#3b82f6" x="452.0" y="135.0" width="12.0" height="20" rx="3"/><rect fill="#f59e0b" x="464.0" y="255.0" width="12.0" height="20" rx="3"/><rect fill="#f59e0b" fill-opacity="0.2" x="464.0" y="135.0" width="12.0" height="20" rx="3"/><rect fill="#f59e0b" fill-opacity="0.2" x="464.0" y="105.0" width="12.0" height="20" rx="3"/><rect fill="#3b82f6" x="476.0" y="105.0" width="12.0" height="20" rx="3"/><rect fill="#f59e0b" x="488.0" y="255.0" width="12.0" height="20" rx="3"/><rect fill="#f59e0b" fill-opacity="0.2" x="488.0" y="105.0" width="12.0" height="20" rx="3"/><rect fill="#f59e0b" fill-opacity="0.2" x="488.0" y="45.0" width="12.0" height="20" rx="3"/><rect fill="#f59e0b" x="500.0" y="255.0" width="12.0" height="20" rx="3"/><rect fill="#f59e0b" fill-opacity="0.2" x="500.0" y="225.0" width="12.0" height="20" rx="3"/><rect fill="#f59e0b" fill-opacity="0.2" x="500.0" y="135.0" width="12.0" height="20" rx="3"/><rect fill="#3b82f6" x="500.0" y="45.0" width="36.0" height="20" rx="3"/><text fill="#ffffff" x="504.0" y="59.0">dis…</text><rect fill="#3b82f6" x="512.0" y="135.0" width="12.0" height="20" rx="3"/><rect fill="#f59e0b" x="524.0" y="255.0" width="12.0" height="20" rx="3"/><rect fill="#f59e0b" fill-opacity="0.2" x="524.0" y="135.0" width="12.0" height="20" rx="3"/><rect fill="#f59e0b" fill-opacity="0.2" x="524.0" y="105.0" width="12.0" height="20" rx="3"/><rect fill="#3b82f6" x="536.0" y="105.0" width="12.0" height="20" rx="3"/><rect fill="#f59e0b" x="536.0" y="255.0" width="12.0" height="20" rx="3"/><rect fill="#f59e0b" fill-opacity="0.2" x="536.0" y="45.0" width="12.0" height="20" rx="3"/><rect fill="#f59e0b" fill-opacity="0.2" x="536.0" y="165.0" width="12.0" height="20" rx="3"/><rect fill="#3b82f6" x="548.0" y="165.0" width="12.0" height="20" rx="3"/><rect fill="#f59e0b" x="548.0" y="255.0" width="12.0" height="20" rx="3"/><rect fill="#f59e0b" fill-opacity="0.2" x="548.0" y="105.0" width="12.0" height="20" rx="3"/><rect fill="#f59e0b" fill-opacity="0.2" x="548.0" y="45.0" width="12.0" height="20" rx="3"/><rect fill="#f59e0b" x="560.0" y="255.0" width="12.0" height="20" rx="3"/><rect fill="#f59e0b" fill-opacity="0.2" x="560.0" y="165.0" width="12.0" height="20" rx="3"/><rect fill="#f59e0b" fill-opacity="0.2" x="560.0" y="225.0" width="12.0" height="20" rx="3"/><rect fill="#3b82f6" x="560.0" y="45.0" width="36.0" height="20" rx="3"/><text fill="#ffffff" x="564.0" y="59.0">dis…</text><rect fill="#3b82f6" x="572.0" y="225.0" width="120.0" height="20" rx="3"/><text fill="#ffffff" x="576.0" y="239.0">thermal_b1_r2</text><rect fill="#f59e0b" x="596.0" y="255.0" width="12.0" height="20" rx="3"/><rect fill="#f59e0b" fill-opacity="0.2" x="596.0" y="45.0" width="12.0" height="20" rx="3"/><rect fill="#f59e0b" fill-opacity="0.2" x="596.0" y="165.0" width="12.0" height="20" rx="3"/><rect fill="#3b82f6" x="608.0" y="165.0" width="12.0" height="20" rx="3"/><rect fill="#f59e0b" x="620.0" y="255.0" width="12.0" height="20" rx="3"/><rect fill="#f59e0b" fill-opacity="0.2" x="620.0" y="165.0" width="12.0" height="20" rx="3"/><rect fill="#f59e0b" fill-opacity="0.2" x="620.0" y="195.0" width="12.0" height="20" rx="3"/><rect fill="#3b82f6" x="632.0" y="195.0" width="120.0" height="20" rx="3"/><text fill="#ffffff" x="636.0" y="209.0">thermal_b2_r2</text><rect fill="#f59e0b" x="692.0" y="255.0" width="12.0" height="20" rx="3"/><rect fill="#f59e0b" fill-opacity="0.2" x="692.0" y="225.0" width="12.0" height="20" rx="3"/><rect fill="#f59e0b" fill-opacity="0.2" x="692.0" y="135.0" width="12.0" height="20" rx="3"/><rect fill="#3b82f6" x="704.0" y="135.0" width="12.0" height="20" rx="3"/><rect fill="#f59e0b" x="716.0" y="255.0" width="12.0" height="20" rx="3"/><rect fill="#f59e0b" fill-opacity="0.2" x="716.0" y="135.0" width="12.0" height="20" rx="3"/><rect fill="#f59e0b" fill-opacity="0.2" x="716.0" y="75.0" width="12.0" height="20" rx="3"/><rect fill="#3b82f6" x="728.0" y="75.0" width="12.0" height="20" rx="3"/><rect fill="#f59e0b" x="752.0" y="255.0" width="12.0" height="20" rx="3"/><rect fill="#f59e0b" fill-opacity="0.2" x="752.0" y="195.0" width="12.0" height="20" rx="3"/><rect fill="#f59e0b" fill-opacity="0.2" x="752.0" y="135.0" width="12.0" height="20" rx="3"/><rect fill="#3b82f6" x="764.0" y="135.0" width="12.0" height="20" rx="3"/><rect fill="#f59e0b" x="776.0" y="255.0" width="12.0" height="20" rx="3"/><rect fill="#f59e0b" fill-opacity="0.2" x="776.0" y="135.0" width="12.0" height="20" rx="3"/><rect fill="#f59e0b" fill-opacity="0.2" x="776.0" y="75.0" width="12.0" height="20" rx="3"/><rect fill="#3b82f6" x="788.0" y="75.0" width="12.0" height="20" rx="3"/></g></svg>
