<?xml version="1.0" encoding="UTF-8"?>
<svg xmlns="http://www.w3.org/2000/svg" viewBox="0 0 784 266" width="784" height="266" font-family="system-ui, sans-serif" font-size="12"><text fill="#1a1a1a" font-size="15" font-weight="600" x="16" y="24">Schedule &#8212; device view</text><text fill="#666666" x="16" y="40">makespan 41 second</text><defs><marker id="ah" markerWidth="8" markerHeight="8" refX="7" refY="3" orient="auto"><path d="M0,0 L7,3 L0,6 Z" fill="#9333ea"/></marker></defs><g transform="translate(0,48)"><line stroke="#b3b3b3" stroke-width="1" x1="200.0" y1="34.0" x2="200.0" y2="190.0"/><text fill="#666666" x="200.0" y="28.0" text-anchor="middle">0</text><line stroke="#b3b3b3" stroke-width="1" x1="268.3" y1="34.0" x2="268.3" y2="190.0"/><text fill="#666666" x="268.3" y="28.0" text-anchor="middle">5</text><line stroke="#b3b3b3" stroke-width="1" x1="336.6" y1="34.0" x2="336.6" y2="190.0"/><text fill="#666666" x="336.6" y="28.0" text-anchor="middle">10</text><line stroke="#b3b3b3" stroke-width="1" x1="404.9" y1="34.0" x2="404.9" y2="190.0"/><text fill="#666666" x="404.9" y="28.0" text-anchor="middle">15</text><line stroke="#b3b3b3" stroke-width="1" x1="473.2" y1="34.0" x2="473.2" y2="190.0"/><text fill="#666666" x="473.2" y="28.0" text-anchor="middle">20</text><line stroke="#b3b3b3" stroke-width="1" x1="541.5" y1="34.0" x2="541.5" y2="190.0"/><text fill="#666666" x="541.5" y="28.0" text-anchor="middle">25</text><line stroke="#b3b3b3" stroke-width="1" x1="609.8" y1="34.0" x2="609.8" y2="190.0"/><text fill="#666666" x="609.8" y="28.0" text-anchor="middle">30</text><line stroke="#b3b3b3" stroke-width="1" x1="678.0" y1="34.0" x2="678.0" y2="190.0"/><text fill="#666666" x="678.0" y="28.0" text-anchor="middle">35</text><line stroke="#b3b3b3" stroke-width="1" x1="746.3" y1="34.0" x2="746.3" y2="190.0"/><text fill="#666666" x="746.3" y="28.0" text-anchor="middle">40</text><text fill="#666666" x="200.0" y="210.0">time (second)</text><line stroke="#d9d9d9" stroke-width="1" x1="0" y1="70.0" x2="784.0" y2="70.0"/><text fill="#1a1a1a" x="190.0" y="59.0" text-anchor="end">rack</text><line stroke="#d9d9d9" stroke-width="1" x1="0" y1="100.0" x2="784.0" y2="100.0"/><text fill="#1a1a1a" x="190.0" y="89.0" text-anchor="end">scope</text><line stroke="#d9d9d9" stroke-width="1" x1="0" y1="130.0" x2="784.0" y2="130.0"/><text fill="#1a1a1a" x="190.0" y="119.0" text-anchor="end">sink</text><line stroke="#d9d9d9" stroke-width="1" x1="0" y1="160.0" x2="784.0" y2="160.0"/><text fill="#1a1a1a" x="190.0" y="149.0" text-anchor="end">tray</text><line stroke="#d9d9d9" stroke-width="1" x1="0" y1="190.0" x2="784.0" y2="190.0"/><text fill="#1a1a1a" x="190.0" y="179.0" text-anchor="end">arm (transporter)</text><rect fill="#f59e0b" x="200.0" y="165.0" width="27.3" height="20" rx="3"/><text fill="#3a2a00" x="204.0" y="179.0">&gt;…</text><rect fill="#f59e0b" fill-opacity="0.2" x="200.0" y="135.0" width="27.3" height="20" rx="3"/><rect fill="#f59e0b" fill-opacity="0.2" x="200.0" y="75.0" width="27.3" height="20" rx="3"/><rect fill="#3b82f6" x="227.3" y="75.0" width="41.0" height="20" rx="3"/><text fill="#ffffff" x="231.3" y="89.0">Each…</text><rect fill="#f59e0b" x="268.3" y="165.0" width="27.3" height="20" rx="3"/><text fill="#3a2a00" x="272.3" y="179.0">&gt;…</text><rect fill="#f59e0b" fill-opacity="0.2" x="268.3" y="75.0" width="27.3" height="20" rx="3"/><rect fill="#f59e0b" fill-opacity="0.2" x="268.3" y="105.0" width="27.3" height="20" rx="3"/><rect fill="#f59e0b" x="295.6" y="165.0" width="27.3" height="20" rx="3"/><text fill="#3a2a00" x="299.6" y="179.0">&gt;…</text><rect fill="#f59e0b" fill-opacity="0.2" x="295.6" y="135.0" width="27.3" height="20" rx="3"/><rect fill="#f59e0b" fill-opacity="0.2" x="295.6" y="75.0" width="27.3" height="20" rx="3"/><rect fill="#3b82f6" x="295.6" y="105.0" width="109.3" height="20" rx="3"/><text fill="#ffffff" x="299.6" y="119.0">Each/0/Choose</text><rect fill="#3b82f6" x="322.9" y="75.0" width="41.0" height="20" rx="3"/><text fill="#ffffff" x="326.9" y="89.0">Each…</text><rect fill="#f59e0b" x="404.9" y="165.0" width="27.3" height="20" rx="3"/><text fill="#3a2a00" x="408.9" y="179.0">&gt;…</text><rect fill="#f59e0b" fill-opacity="0.2" x="404.9" y="105.0" width="27.3" height="20" rx="3"/><rect fill="#f59e0b" fill-opacity="0.2" x="404.9" y="45.0" width="27.3" height="20" rx="3"/><rect fill="#f59e0b" x="432.2" y="165.0" width="27.3" height="20" rx="3"/><text fill="#3a2a00" x="436.2" y="179.0">&gt;…</text><rect fill="#f59e0b" fill-opacity="0.2" x="432.2" y="75.0" width="27.3" height="20" rx="3"/><rect fill="#f59e0b" fill-opacity="0.2" x="432.2" y="105.0" width="27.3" height="20" rx="3"/><rect fill="#f59e0b" x="459.5" y="165.0" width="27.3" height="20" rx="3"/><text fill="#3a2a00" x="463.5" y="179.0">&gt;…</text><rect fill="#f59e0b" fill-opacity="0.2" x="459.5" y="135.0" width="27.3" height="20" rx="3"/><rect fill="#f59e0b" fill-opacity="0.2" x="459.5" y="75.0" width="27.3" height="20" rx="3"/><rect fill="#3b82f6" x="459.5" y="105.0" width="109.3" height="20" rx="3"/><text fill="#ffffff" x="463.5" y="119.0">Each/1/Choose</text><rect fill="#3b82f6" x="486.8" y="75.0" width="41.0" height="20" rx="3"/><text fill="#ffffff" x="490.8" y="89.0">Each…</text><rect fill="#f59e0b" x="568.8" y="165.0" width="27.3" height="20" rx="3"/><text fill="#3a2a00" x="572.8" y="179.0">&gt;…</text><rect fill="#f59e0b" fill-opacity="0.2" x="568.8" y="105.0" width="27.3" height="20" rx="3"/><rect fill="#f59e0b" fill-opacity="0.2" x="568.8" y="45.0" width="27.3" height="20" rx="3"/><rect fill="#f59e0b" x="596.1" y="165.0" width="27.3" height="20" rx="3"/><text fill="#3a2a00" x="600.1" y="179.0">&gt;…</text><rect fill="#f59e0b" fill-opacity="0.2" x="596.1" y="75.0" width="27.3" height="20" rx="3"/><rect fill="#f59e0b" fill-opacity="0.2" x="596.1" y="105.0" width="27.3" height="20" rx="3"/><rect fill="#3b82f6" x="623.4" y="105.0" width="109.3" height="20" rx="3"/><text fill="#ffffff" x="627.4" y="119.0">Each/2/Choose</text><rect fill="#f59e0b" x="732.7" y="165.0" width="27.3" height="20" rx="3"/><text fill="#3a2a00" x="736.7" y="179.0">&gt;…</text><rect fill="#f59e0b" fill-opacity="0.2" x="732.7" y="105.0" width="27.3" height="20" rx="3"/><rect fill="#f59e0b" fill-opacity="0.2" x="732.7" y="45.0" width="27.3" height="20" rx="3"/></g></svg>
