<?xml version="1.0" encoding="UTF-8"?>
<svg xmlns="http://www.w3.org/2000/svg" viewBox="0 0 784 656" width="784" height="656" font-family="system-ui, sans-serif" font-size="12"><text fill="#1a1a1a" font-size="15" font-weight="600" x="16" y="24">Schedule &#8212; workflow view</text><text fill="#666666" x="16" y="40">makespan 41 second</text><defs><marker id="ah" markerWidth="8" markerHeight="8" refX="7" refY="3" orient="auto"><path d="M0,0 L7,3 L0,6 Z" fill="#9333ea"/></marker></defs><g transform="translate(0,48)"><line stroke="#b3b3b3" stroke-width="1" x1="200.0" y1="34.0" x2="200.0" y2="580.0"/><text fill="#666666" x="200.0" y="28.0" text-anchor="middle">0</text><line stroke="#b3b3b3" stroke-width="1" x1="268.3" y1="34.0" x2="268.3" y2="580.0"/><text fill="#666666" x="268.3" y="28.0" text-anchor="middle">5</text><line stroke="#b3b3b3" stroke-width="1" x1="336.6" y1="34.0" x2="336.6" y2="580.0"/><text fill="#666666" x="336.6" y="28.0" text-anchor="middle">10</text><line stroke="#b3b3b3" stroke-width="1" x1="404.9" y1="34.0" x2="404.9" y2="580.0"/><text fill="#666666" x="404.9" y="28.0" text-anchor="middle">15</text><line stroke="#b3b3b3" stroke-width="1" x1="473.2" y1="34.0" x2="473.2" y2="580.0"/><text fill="#666666" x="473.2" y="28.0" text-anchor="middle">20</text><line stroke="#b3b3b3" stroke-width="1" x1="541.5" y1="34.0" x2="541.5" y2="580.0"/><text fill="#666666" x="541.5" y="28.0" text-anchor="middle">25</text><line stroke="#b3b3b3" stroke-width="1" x1="609.8" y1="34.0" x2="609.8" y2="580.0"/><text fill="#666666" x="609.8" y="28.0" text-anchor="middle">30</text><line stroke="#b3b3b3" stroke-width="1" x1="678.0" y1="34.0" x2="678.0" y2="580.0"/><text fill="#666666" x="678.0" y="28.0" text-anchor="middle">35</text><line stroke="#b3b3b3" stroke-width="1" x1="746.3" y1="34.0" x2="746.3" y2="580.0"/><text fill="#666666" x="746.3" y="28.0" text-anchor="middle">40</text><text fill="#666666" x="200.0" y="600.0">time (second)</text><line stroke="#d9d9d9" stroke-width="1" x1="0" y1="70.0" x2="784.0" y2="70.0"/><text fill="#1a1a1a" x="190.0" y="59.0" text-anchor="end">&gt; Each/0/Look</text><line stroke="#d9d9d9" stroke-width="1" x1="0" y1="100.0" x2="784.0" y2="100.0"/><text fill="#1a1a1a" x="190.0" y="89.0" text-anchor="end">Each/0/Look</text><line stroke="#d9d9d9" stroke-width="1" x1="0" y1="130.0" x2="784.0" y2="130.0"/><text fill="#1a1a1a" x="190.0" y="119.0" text-anchor="end">decide Each/0/Choose: then (assumed)</text><line stroke="#d9d9d9" stroke-width="1" x1="0" y1="160.0" x2="784.0" y2="160.0"/><text fill="#1a1a1a" x="190.0" y="149.0" text-anchor="end">&gt; Each/0/Choose</text><line stroke="#d9d9d9" stroke-width="1" x1="0" y1="190.0" x2="784.0" y2="190.0"/><text fill="#1a1a1a" x="190.0" y="179.0" text-anchor="end">&gt; Each/1/Look</text><line stroke="#d9d9d9" stroke-width="1" x1="0" y1="220.0" x2="784.0" y2="220.0"/><text fill="#1a1a1a" x="190.0" y="209.0" text-anchor="end">Each/0/Choose</text><line stroke="#d9d9d9" stroke-width="1" x1="0" y1="250.0" x2="784.0" y2="250.0"/><text fill="#1a1a1a" x="190.0" y="239.0" text-anchor="end">Each/1/Look</text><line stroke="#d9d9d9" stroke-width="1" x1="0" y1="280.0" x2="784.0" y2="280.0"/><text fill="#1a1a1a" x="190.0" y="269.0" text-anchor="end">decide Each/1/Choose: then (assumed)</text><line stroke="#d9d9d9" stroke-width="1" x1="0" y1="310.0" x2="784.0" y2="310.0"/><text fill="#1a1a1a" x="190.0" y="299.0" text-anchor="end">&gt; cups[0]</text><line stroke="#d9d9d9" stroke-width="1" x1="0" y1="340.0" x2="784.0" y2="340.0"/><text fill="#1a1a1a" x="190.0" y="329.0" text-anchor="end">&gt; Each/1/Choose</text><line stroke="#d9d9d9" stroke-width="1" x1="0" y1="370.0" x2="784.0" y2="370.0"/><text fill="#1a1a1a" x="190.0" y="359.0" text-anchor="end">&gt; Each/2/Look</text><line stroke="#d9d9d9" stroke-width="1" x1="0" y1="400.0" x2="784.0" y2="400.0"/><text fill="#1a1a1a" x="190.0" y="389.0" text-anchor="end">Each/1/Choose</text><line stroke="#d9d9d9" stroke-width="1" x1="0" y1="430.0" x2="784.0" y2="430.0"/><text fill="#1a1a1a" x="190.0" y="419.0" text-anchor="end">Each/2/Look</text><line stroke="#d9d9d9" stroke-width="1" x1="0" y1="460.0" x2="784.0" y2="460.0"/><text fill="#1a1a1a" x="190.0" y="449.0" text-anchor="end">decide Each/2/Choose: then (assumed)</text><line stroke="#d9d9d9" stroke-width="1" x1="0" y1="490.0" x2="784.0" y2="490.0"/><text fill="#1a1a1a" x="190.0" y="479.0" text-anchor="end">&gt; cups[1]</text><line stroke="#d9d9d9" stroke-width="1" x1="0" y1="520.0" x2="784.0" y2="520.0"/><text fill="#1a1a1a" x="190.0" y="509.0" text-anchor="end">&gt; Each/2/Choose</text><line stroke="#d9d9d9" stroke-width="1" x1="0" y1="550.0" x2="784.0" y2="550.0"/><text fill="#1a1a1a" x="190.0" y="539.0" text-anchor="end">Each/2/Choose</text><line stroke="#d9d9d9" stroke-width="1" x1="0" y1="580.0" x2="784.0" y2="580.0"/><text fill="#1a1a1a" x="190.0" y="569.0" text-anchor="end">&gt; cups[2]</text><path fill="none" stroke="#9333ea" stroke-width="1.3" stroke-opacity="0.8" d="M227.3,55.0 C243.3,55.0 211.3,85.0 227.3,85.0" marker-end="url(#ah)"/><path fill="none" stroke="#9333ea" stroke-width="1.3" stroke-opacity="0.8" d="M268.3,85.0 C284.3,85.0 252.3,145.0 268.3,145.0" marker-end="url(#ah)"/><path fill="none" stroke="#9333ea" stroke-width="1.3" stroke-opacity="0.8" d="M295.6,145.0 C311.6,145.0 279.6,205.0 295.6,205.0" marker-end="url(#ah)"/><path fill="none" stroke="#9333ea" stroke-width="1.3" stroke-opacity="0.8" d="M322.9,175.0 C338.9,175.0 306.9,235.0 322.9,235.0" marker-end="url(#ah)"/><path fill="none" stroke="#9333ea" stroke-width="1.3" stroke-opacity="0.8" d="M404.9,205.0 C420.9,205.0 388.9,295.0 404.9,295.0" marker-end="url(#ah)"/><path fill="none" stroke="#9333ea" stroke-width="1.3" stroke-opacity="0.8" d="M363.9,235.0 C379.9,235.0 416.2,325.0 432.2,325.0" marker-end="url(#ah)"/><path fill="none" stroke="#9333ea" stroke-width="1.3" stroke-opacity="0.8" d="M459.5,325.0 C475.5,325.0 443.5,385.0 459.5,385.0" marker-end="url(#ah)"/><path fill="none" stroke="#9333ea" stroke-width="1.3" stroke-opacity="0.8" d="M486.8,355.0 C502.8,355.0 470.8,415.0 486.8,415.0" marker-end="url(#ah)"/><path fill="none" stroke="#9333ea" stroke-width="1.3" stroke-opacity="0.8" d="M568.8,385.0 C584.8,385.0 552.8,475.0 568.8,475.0" marker-end="url(#ah)"/><path fill="none" stroke="#9333ea" stroke-width="1.3" stroke-opacity="0.8" d="M527.8,415.0 C543.8,415.0 580.1,505.0 596.1,505.0" marker-end="url(#ah)"/><path fill="none" stroke="#9333ea" stroke-width="1.3" stroke-opacity="0.8" d="M623.4,505.0 C639.4,505.0 607.4,535.0 623.4,535.0" marker-end="url(#ah)"/><path fill="none" stroke="#9333ea" stroke-width="1.3" stroke-opacity="0.8" d="M732.7,535.0 C748.7,535.0 716.7,565.0 732.7,565.0" marker-end="url(#ah)"/><rect fill="#f59e0b" x="200.0" y="45.0" width="27.3" height="20" rx="3"/><text fill="#3a2a00" x="204.0" y="59.0">&gt;…</text><rect fill="#3b82f6" x="227.3" y="75.0" width="41.0" height="20" rx="3"/><text fill="#ffffff" x="231.3" y="89.0">Each…</text><rect fill="#f59e0b" fill-opacity="0.2" x="268.3" y="105.0" width="2.0" height="20" rx="3"/><rect fill="#f59e0b" x="268.3" y="135.0" width="27.3" height="20" rx="3"/><text fill="#3a2a00" x="272.3" y="149.0">&gt;…</text><rect fill="#f59e0b" x="295.6" y="165.0" width="27.3" height="20" rx="3"/><text fill="#3a2a00" x="299.6" y="179.0">&gt;…</text><rect fill="#3b82f6" x="295.6" y="195.0" width="109.3" height="20" rx="3"/><text fill="#ffffff" x="299.6" y="209.0">Each/0/Choose</text><rect fill="#3b82f6" x="322.9" y="225.0" width="41.0" height="20" rx="3"/><text fill="#ffffff" x="326.9" y="239.0">Each…</text><rect fill="#f59e0b" fill-opacity="0.2" x="363.9" y="255.0" width="2.0" height="20" rx="3"/><rect fill="#f59e0b" x="404.9" y="285.0" width="27.3" height="20" rx="3"/><text fill="#3a2a00" x="408.9" y="299.0">&gt;…</text><rect fill="#f59e0b" x="432.2" y="315.0" width="27.3" height="20" rx="3"/><text fill="#3a2a00" x="436.2" y="329.0">&gt;…</text><rect fill="#f59e0b" x="459.5" y="345.0" width="27.3" height="20" rx="3"/><text fill="#3a2a00" x="463.5" y="359.0">&gt;…</text><rect fill="#3b82f6" x="459.5" y="375.0" width="109.3" height="20" rx="3"/><text fill="#ffffff" x="463.5" y="389.0">Each/1/Choose</text><rect fill="#3b82f6" x="486.8" y="405.0" width="41.0" height="20" rx="3"/><text fill="#ffffff" x="490.8" y="419.0">Each…</text><rect fill="#f59e0b" fill-opacity="0.2" x="527.8" y="435.0" width="2.0" height="20" rx="3"/><rect fill="#f59e0b" x="568.8" y="465.0" width="27.3" height="20" rx="3"/><text fill="#3a2a00" x="572.8" y="479.0">&gt;…</text><rect fill="#f59e0b" x="596.1" y="495.0" width="27.3" height="20" rx="3"/><text fill="#3a2a00" x="600.1" y="509.0">&gt;…</text><rect fill="#3b82f6" x="623.4" y="525.0" width="109.3" height="20" rx="3"/><text fill="#ffffff" x="627.4" y="539.0">Each/2/Choose</text><rect fill="#f59e0b" x="732.7" y="555.0" width="27.3" height="20" rx="3"/><text fill="#3a2a00" x="736.7" y="569.0">&gt;…</text></g></svg>
