<?xml version="1.0" encoding="UTF-8"?>
<svg xmlns="http://www.w3.org/2000/svg" viewBox="0 0 784 206" width="784" height="206" font-family="system-ui, sans-serif" font-size="12"><text fill="#1a1a1a" font-size="15" font-weight="600" x="16" y="24">Schedule &#8212; station view</text><text fill="#666666" x="16" y="40">makespan 5 second</text><defs><marker id="ah" markerWidth="8" markerHeight="8" refX="7" refY="3" orient="auto"><path d="M0,0 L7,3 L0,6 Z" fill="#9333ea"/></marker></defs><g transform="translate(0,48)"><line stroke="#b3b3b3" stroke-width="1" x1="200.0" y1="34.0" x2="200.0" y2="130.0"/><text fill="#666666" x="200.0" y="28.0" text-anchor="middle">0</text><line stroke="#b3b3b3" stroke-width="1" x1="312.0" y1="34.0" x2="312.0" y2="130.0"/><text fill="#666666" x="312.0" y="28.0" text-anchor="middle">1</text><line stroke="#b3b3b3" stroke-width="1" x1="424.0" y1="34.0" x2="424.0" y2="130.0"/><text fill="#666666" x="424.0" y="28.0" text-anchor="middle">2</text><line stroke="#b3b3b3" stroke-width="1" x1="536.0" y1="34.0" x2="536.0" y2="130.0"/><text fill="#666666" x="536.0" y="28.0" text-anchor="middle">3</text><line stroke="#b3b3b3" stroke-width="1" x1="648.0" y1="34.0" x2="648.0" y2="130.0"/><text fill="#666666" x="648.0" y="28.0" text-anchor="middle">4</text><line stroke="#b3b3b3" stroke-width="1" x1="760.0" y1="34.0" x2="760.0" y2="130.0"/><text fill="#666666" x="760.0" y="28.0" text-anchor="middle">5</text><text fill="#666666" x="200.0" y="150.0">time (second)</text><line stroke="#d9d9d9" stroke-width="1" x1="0" y1="70.0" x2="784.0" y2="70.0"/><text fill="#1a1a1a" x="190.0" y="59.0" text-anchor="end">station_0</text><line stroke="#d9d9d9" stroke-width="1" x1="0" y1="100.0" x2="784.0" y2="100.0"/><text fill="#1a1a1a" x="190.0" y="89.0" text-anchor="end">station_1</text><line stroke="#d9d9d9" stroke-width="1" x1="0" y1="130.0" x2="784.0" y2="130.0"/><text fill="#1a1a1a" x="190.0" y="119.0" text-anchor="end">transport (transporter)</text><rect fill="#3b82f6" x="200.0" y="45.0" width="224.0" height="20" rx="3"/><text fill="#ffffff" x="204.0" y="59.0">SampleSource</text><rect fill="#f59e0b" x="424.0" y="105.0" width="112.0" height="20" rx="3"/><text fill="#3a2a00" x="428.0" y="119.0">&gt; SampleTarget</text><rect fill="#f59e0b" fill-opacity="0.2" x="424.0" y="45.0" width="112.0" height="20" rx="3"/><rect fill="#f59e0b" fill-opacity="0.2" x="424.0" y="75.0" width="112.0" height="20" rx="3"/><rect fill="#3b82f6" x="536.0" y="75.0" width="224.0" height="20" rx="3"/><text fill="#ffffff" x="540.0" y="89.0">SampleTarget</text></g></svg>
