<?xml version="1.0" encoding="UTF-8"?>
<svg xmlns="http://www.w3.org/2000/svg" viewBox="0 0 784 206" width="784" height="206" font-family="system-ui, sans-serif" font-size="12"><text fill="#1a1a1a" font-size="15" font-weight="600" x="16" y="24">Schedule &#8212; lane view</text><text fill="#666666" x="16" y="40">makespan 34 second</text><defs><marker id="ah" markerWidth="8" markerHeight="8" refX="7" refY="3" orient="auto"><path d="M0,0 L7,3 L0,6 Z" fill="#9333ea"/></marker></defs><g transform="translate(0,48)"><line stroke="#b3b3b3" stroke-width="1" x1="200.0" y1="34.0" x2="200.0" y2="130.0"/><text fill="#666666" x="200.0" y="28.0" text-anchor="middle">0</text><line stroke="#b3b3b3" stroke-width="1" x1="282.4" y1="34.0" x2="282.4" y2="130.0"/><text fill="#666666" x="282.4" y="28.0" text-anchor="middle">5</text><line stroke="#b3b3b3" stroke-width="1" x1="364.7" y1="34.0" x2="364.7" y2="130.0"/><text fill="#666666" x="364.7" y="28.0" text-anchor="middle">10</text><line stroke="#b3b3b3" stroke-width="1" x1="447.1" y1="34.0" x2="447.1" y2="130.0"/><text fill="#666666" x="447.1" y="28.0" text-anchor="middle">15</text><line stroke="#b3b3b3" stroke-width="1" x1="529.4" y1="34.0" x2="529.4" y2="130.0"/><text fill="#666666" x="529.4" y="28.0" text-anchor="middle">20</text><line stroke="#b3b3b3" stroke-width="1" x1="611.8" y1="34.0" x2="611.8" y2="130.0"/><text fill="#666666" x="611.8" y="28.0" text-anchor="middle">25</text><line stroke="#b3b3b3" stroke-width="1" x1="694.1" y1="34.0" x2="694.1" y2="130.0"/><text fill="#666666" x="694.1" y="28.0" text-anchor="middle">30</text><text fill="#666666" x="200.0" y="150.0">time (second)</text><line stroke="#d9d9d9" stroke-width="1" x1="0" y1="70.0" x2="784.0" y2="70.0"/><text fill="#1a1a1a" x="190.0" y="59.0" text-anchor="end">lane 1</text><line stroke="#d9d9d9" stroke-width="1" x1="0" y1="100.0" x2="784.0" y2="100.0"/><text fill="#1a1a1a" x="190.0" y="89.0" text-anchor="end">lane 2</text><line stroke="#d9d9d9" stroke-width="1" x1="0" y1="130.0" x2="784.0" y2="130.0"/><text fill="#1a1a1a" x="190.0" y="119.0" text-anchor="end">lane 3</text><path fill="none" stroke="#9333ea" stroke-width="1.3" stroke-opacity="0.8" d="M265.9,55.0 C281.9,55.0 249.9,55.0 265.9,55.0" marker-end="url(#ah)"/><path fill="none" stroke="#9333ea" stroke-width="1.3" stroke-opacity="0.8" d="M298.8,55.0 C314.8,55.0 282.8,55.0 298.8,55.0" marker-end="url(#ah)"/><path fill="none" stroke="#9333ea" stroke-width="1.3" stroke-opacity="0.8" d="M397.6,55.0 C413.6,55.0 381.6,55.0 397.6,55.0" marker-end="url(#ah)"/><path fill="none" stroke="#9333ea" stroke-width="1.3" stroke-opacity="0.8" d="M364.7,85.0 C380.7,85.0 414.6,85.0 430.6,85.0" marker-end="url(#ah)"/><path fill="none" stroke="#9333ea" stroke-width="1.3" stroke-opacity="0.8" d="M463.5,85.0 C479.5,85.0 447.5,85.0 463.5,85.0" marker-end="url(#ah)"/><path fill="none" stroke="#9333ea" stroke-width="1.3" stroke-opacity="0.8" d="M562.4,85.0 C578.4,85.0 546.4,85.0 562.4,85.0" marker-end="url(#ah)"/><path fill="none" stroke="#9333ea" stroke-width="1.3" stroke-opacity="0.8" d="M529.4,115.0 C545.4,115.0 579.3,115.0 595.3,115.0" marker-end="url(#ah)"/><path fill="none" stroke="#9333ea" stroke-width="1.3" stroke-opacity="0.8" d="M628.2,115.0 C644.2,115.0 612.2,115.0 628.2,115.0" marker-end="url(#ah)"/><path fill="none" stroke="#9333ea" stroke-width="1.3" stroke-opacity="0.8" d="M727.1,115.0 C743.1,115.0 711.1,115.0 727.1,115.0" marker-end="url(#ah)"/><rect fill="#3b82f6" x="200.0" y="45.0" width="65.9" height="20" rx="3"/><text fill="#ffffff" x="204.0" y="59.0">Make/0/…</text><rect fill="#3b82f6" x="298.8" y="75.0" width="65.9" height="20" rx="3"/><text fill="#ffffff" x="302.8" y="89.0">Make/1/…</text><rect fill="#3b82f6" x="298.8" y="45.0" width="98.8" height="20" rx="3"/><text fill="#ffffff" x="302.8" y="59.0">Make/0/fill</text><rect fill="#3b82f6" x="463.5" y="105.0" width="65.9" height="20" rx="3"/><text fill="#ffffff" x="467.5" y="119.0">Make/2/…</text><rect fill="#3b82f6" x="463.5" y="75.0" width="98.8" height="20" rx="3"/><text fill="#ffffff" x="467.5" y="89.0">Make/1/fill</text><rect fill="#3b82f6" x="628.2" y="105.0" width="98.8" height="20" rx="3"/><text fill="#ffffff" x="632.2" y="119.0">Make/2/fill</text><rect fill="#f59e0b" x="265.9" y="45.0" width="32.9" height="20" rx="3"/><text fill="#3a2a00" x="269.9" y="59.0">&gt; …</text><rect fill="#f59e0b" x="397.6" y="45.0" width="32.9" height="20" rx="3"/><text fill="#3a2a00" x="401.6" y="59.0">&gt; …</text><rect fill="#f59e0b" x="430.6" y="75.0" width="32.9" height="20" rx="3"/><text fill="#3a2a00" x="434.6" y="89.0">&gt; …</text><rect fill="#f59e0b" x="562.4" y="75.0" width="32.9" height="20" rx="3"/><text fill="#3a2a00" x="566.4" y="89.0">&gt; …</text><rect fill="#f59e0b" x="595.3" y="105.0" width="32.9" height="20" rx="3"/><text fill="#3a2a00" x="599.3" y="119.0">&gt; …</text><rect fill="#f59e0b" x="727.1" y="105.0" width="32.9" height="20" rx="3"/><text fill="#3a2a00" x="731.1" y="119.0">&gt; …</text></g></svg>
