<?xml version="1.0" encoding="UTF-8"?>
<svg xmlns="http://www.w3.org/2000/svg" viewBox="0 0 824 176" width="824" height="176" font-family="system-ui, sans-serif" font-size="12"><text fill="#1a1a1a" font-size="15" font-weight="600" x="16" y="24">Schedule &#8212; lane view</text><text fill="#666666" x="16" y="40">makespan 50 second</text><defs><marker id="ah" markerWidth="8" markerHeight="8" refX="7" refY="3" orient="auto"><path d="M0,0 L7,3 L0,6 Z" fill="#9333ea"/></marker></defs><g transform="translate(0,48)"><line stroke="#b3b3b3" stroke-width="1" x1="200.0" y1="34.0" x2="200.0" y2="100.0"/><text fill="#666666" x="200.0" y="28.0" text-anchor="middle">0</text><line stroke="#b3b3b3" stroke-width="1" x1="260.0" y1="34.0" x2="260.0" y2="100.0"/><text fill="#666666" x="260.0" y="28.0" text-anchor="middle">5</text><line stroke="#b3b3b3" stroke-width="1" x1="320.0" y1="34.0" x2="320.0" y2="100.0"/><text fill="#666666" x="320.0" y="28.0" text-anchor="middle">10</text><line stroke="#b3b3b3" stroke-width="1" x1="380.0" y1="34.0" x2="380.0" y2="100.0"/><text fill="#666666" x="380.0" y="28.0" text-anchor="middle">15</text><line stroke="#b3b3b3" stroke-width="1" x1="440.0" y1="34.0" x2="440.0" y2="100.0"/><text fill="#666666" x="440.0" y="28.0" text-anchor="middle">20</text><line stroke="#b3b3b3" stroke-width="1" x1="500.0" y1="34.0" x2="500.0" y2="100.0"/><text fill="#666666" x="500.0" y="28.0" text-anchor="middle">25</text><line stroke="#b3b3b3" stroke-width="1" x1="560.0" y1="34.0" x2="560.0" y2="100.0"/><text fill="#666666" x="560.0" y="28.0" text-anchor="middle">30</text><line stroke="#b3b3b3" stroke-width="1" x1="620.0" y1="34.0" x2="620.0" y2="100.0"/><text fill="#666666" x="620.0" y="28.0" text-anchor="middle">35</text><line stroke="#b3b3b3" stroke-width="1" x1="680.0" y1="34.0" x2="680.0" y2="100.0"/><text fill="#666666" x="680.0" y="28.0" text-anchor="middle">40</text><line stroke="#b3b3b3" stroke-width="1" x1="740.0" y1="34.0" x2="740.0" y2="100.0"/><text fill="#666666" x="740.0" y="28.0" text-anchor="middle">45</text><line stroke="#b3b3b3" stroke-width="1" x1="800.0" y1="34.0" x2="800.0" y2="100.0"/><text fill="#666666" x="800.0" y="28.0" text-anchor="middle">50</text><text fill="#666666" x="200.0" y="120.0">time (second)</text><line stroke="#d9d9d9" stroke-width="1" x1="0" y1="70.0" x2="824.0" y2="70.0"/><text fill="#1a1a1a" x="190.0" y="59.0" text-anchor="end">lane 1</text><line stroke="#d9d9d9" stroke-width="1" x1="0" y1="100.0" x2="824.0" y2="100.0"/><text fill="#1a1a1a" x="190.0" y="89.0" text-anchor="end">lane 2</text><path fill="none" stroke="#9333ea" stroke-width="1.3" stroke-opacity="0.8" d="M212.0,55.0 C228.0,55.0 196.0,55.0 212.0,55.0" marker-end="url(#ah)"/><path fill="none" stroke="#9333ea" stroke-width="1.3" stroke-opacity="0.8" d="M224.0,55.0 C240.0,55.0 208.0,55.0 224.0,55.0" marker-end="url(#ah)"/><path fill="none" stroke="#9333ea" stroke-width="1.3" stroke-opacity="0.8" d="M236.0,55.0 C252.0,55.0 220.0,55.0 236.0,55.0" marker-end="url(#ah)"/><path fill="none" stroke="#9333ea" stroke-width="1.3" stroke-opacity="0.8" d="M248.0,55.0 C264.0,55.0 232.0,55.0 248.0,55.0" marker-end="url(#ah)"/><path fill="none" stroke="#9333ea" stroke-width="1.3" stroke-opacity="0.8" d="M212.0,55.0 C228.0,55.0 232.0,85.0 248.0,85.0" marker-end="url(#ah)"/><path fill="none" stroke="#9333ea" stroke-width="1.3" stroke-opacity="0.8" d="M260.0,85.0 C276.0,85.0 244.0,85.0 260.0,85.0" marker-end="url(#ah)"/><path fill="none" stroke="#9333ea" stroke-width="1.3" stroke-opacity="0.8" d="M284.0,55.0 C300.0,55.0 268.0,55.0 284.0,55.0" marker-end="url(#ah)"/><path fill="none" stroke="#9333ea" stroke-width="1.3" stroke-opacity="0.8" d="M296.0,55.0 C312.0,55.0 280.0,55.0 296.0,55.0" marker-end="url(#ah)"/><path fill="none" stroke="#9333ea" stroke-width="1.3" stroke-opacity="0.8" d="M272.0,85.0 C288.0,85.0 280.0,85.0 296.0,85.0" marker-end="url(#ah)"/><path fill="none" stroke="#9333ea" stroke-width="1.3" stroke-opacity="0.8" d="M308.0,85.0 C324.0,85.0 292.0,85.0 308.0,85.0" marker-end="url(#ah)"/><path fill="none" stroke="#9333ea" stroke-width="1.3" stroke-opacity="0.8" d="M308.0,55.0 C324.0,55.0 292.0,55.0 308.0,55.0" marker-end="url(#ah)"/><path fill="none" stroke="#9333ea" stroke-width="1.3" stroke-opacity="0.8" d="M320.0,55.0 C336.0,55.0 304.0,55.0 320.0,55.0" marker-end="url(#ah)"/><path fill="none" stroke="#9333ea" stroke-width="1.3" stroke-opacity="0.8" d="M344.0,85.0 C360.0,85.0 328.0,85.0 344.0,85.0" marker-end="url(#ah)"/><path fill="none" stroke="#9333ea" stroke-width="1.3" stroke-opacity="0.8" d="M356.0,85.0 C372.0,85.0 340.0,85.0 356.0,85.0" marker-end="url(#ah)"/><path fill="none" stroke="#9333ea" stroke-width="1.3" stroke-opacity="0.8" d="M368.0,85.0 C384.0,85.0 352.0,85.0 368.0,85.0" marker-end="url(#ah)"/><path fill="none" stroke="#9333ea" stroke-width="1.3" stroke-opacity="0.8" d="M380.0,85.0 C396.0,85.0 364.0,85.0 380.0,85.0" marker-end="url(#ah)"/><path fill="none" stroke="#9333ea" stroke-width="1.3" stroke-opacity="0.8" d="M440.0,55.0 C456.0,55.0 424.0,55.0 440.0,55.0" marker-end="url(#ah)"/><path fill="none" stroke="#9333ea" stroke-width="1.3" stroke-opacity="0.8" d="M452.0,55.0 C468.0,55.0 436.0,55.0 452.0,55.0" marker-end="url(#ah)"/><path fill="none" stroke="#9333ea" stroke-width="1.3" stroke-opacity="0.8" d="M464.0,55.0 C480.0,55.0 448.0,55.0 464.0,55.0" marker-end="url(#ah)"/><path fill="none" stroke="#9333ea" stroke-width="1.3" stroke-opacity="0.8" d="M476.0,55.0 C492.0,55.0 460.0,55.0 476.0,55.0" marker-end="url(#ah)"/><path fill="none" stroke="#9333ea" stroke-width="1.3" stroke-opacity="0.8" d="M488.0,55.0 C504.0,55.0 472.0,55.0 488.0,55.0" marker-end="url(#ah)"/><path fill="none" stroke="#9333ea" stroke-width="1.3" stroke-opacity="0.8" d="M500.0,55.0 C516.0,55.0 484.0,55.0 500.0,55.0" marker-end="url(#ah)"/><path fill="none" stroke="#9333ea" stroke-width="1.3" stroke-opacity="0.8" d="M500.0,85.0 C516.0,85.0 484.0,85.0 500.0,85.0" marker-end="url(#ah)"/><path fill="none" stroke="#9333ea" stroke-width="1.3" stroke-opacity="0.8" d="M512.0,85.0 C528.0,85.0 496.0,85.0 512.0,85.0" marker-end="url(#ah)"/><path fill="none" stroke="#9333ea" stroke-width="1.3" stroke-opacity="0.8" d="M524.0,85.0 C540.0,85.0 508.0,85.0 524.0,85.0" marker-end="url(#ah)"/><path fill="none" stroke="#9333ea" stroke-width="1.3" stroke-opacity="0.8" d="M536.0,85.0 C552.0,85.0 520.0,85.0 536.0,85.0" marker-end="url(#ah)"/><path fill="none" stroke="#9333ea" stroke-width="1.3" stroke-opacity="0.8" d="M536.0,55.0 C552.0,55.0 520.0,55.0 536.0,55.0" marker-end="url(#ah)"/><path fill="none" stroke="#9333ea" stroke-width="1.3" stroke-opacity="0.8" d="M548.0,55.0 C564.0,55.0 532.0,55.0 548.0,55.0" marker-end="url(#ah)"/><path fill="none" stroke="#9333ea" stroke-width="1.3" stroke-opacity="0.8" d="M548.0,85.0 C564.0,85.0 532.0,85.0 548.0,85.0" marker-end="url(#ah)"/><path fill="none" stroke="#9333ea" stroke-width="1.3" stroke-opacity="0.8" d="M560.0,85.0 C576.0,85.0 544.0,85.0 560.0,85.0" marker-end="url(#ah)"/><path fill="none" stroke="#9333ea" stroke-width="1.3" stroke-opacity="0.8" d="M560.0,55.0 C576.0,55.0 544.0,55.0 560.0,55.0" marker-end="url(#ah)"/><path fill="none" stroke="#9333ea" stroke-width="1.3" stroke-opacity="0.8" d="M572.0,55.0 C588.0,55.0 556.0,55.0 572.0,55.0" marker-end="url(#ah)"/><path fill="none" stroke="#9333ea" stroke-width="1.3" stroke-opacity="0.8" d="M596.0,85.0 C612.0,85.0 580.0,85.0 596.0,85.0" marker-end="url(#ah)"/><path fill="none" stroke="#9333ea" stroke-width="1.3" stroke-opacity="0.8" d="M608.0,85.0 C624.0,85.0 592.0,85.0 608.0,85.0" marker-end="url(#ah)"/><path fill="none" stroke="#9333ea" stroke-width="1.3" stroke-opacity="0.8" d="M620.0,85.0 C636.0,85.0 604.0,85.0 620.0,85.0" marker-end="url(#ah)"/><path fill="none" stroke="#9333ea" stroke-width="1.3" stroke-opacity="0.8" d="M632.0,85.0 C648.0,85.0 616.0,85.0 632.0,85.0" marker-end="url(#ah)"/><path fill="none" stroke="#9333ea" stroke-width="1.3" stroke-opacity="0.8" d="M692.0,55.0 C708.0,55.0 676.0,55.0 692.0,55.0" marker-end="url(#ah)"/><path fill="none" stroke="#9333ea" stroke-width="1.3" stroke-opacity="0.8" d="M704.0,55.0 C720.0,55.0 688.0,55.0 704.0,55.0" marker-end="url(#ah)"/><path fill="none" stroke="#9333ea" stroke-width="1.3" stroke-opacity="0.8" d="M716.0,55.0 C732.0,55.0 700.0,55.0 716.0,55.0" marker-end="url(#ah)"/><path fill="none" stroke="#9333ea" stroke-width="1.3" stroke-opacity="0.8" d="M728.0,55.0 C744.0,55.0 772.0,55.0 788.0,55.0" marker-end="url(#ah)"/><path fill="none" stroke="#9333ea" stroke-width="1.3" stroke-opacity="0.8" d="M752.0,85.0 C768.0,85.0 736.0,85.0 752.0,85.0" marker-end="url(#ah)"/><path fill="none" stroke="#9333ea" stroke-width="1.3" stroke-opacity="0.8" d="M764.0,85.0 C780.0,85.0 748.0,85.0 764.0,85.0" marker-end="url(#ah)"/><path fill="none" stroke="#9333ea" stroke-width="1.3" stroke-opacity="0.8" d="M776.0,85.0 C792.0,85.0 760.0,85.0 776.0,85.0" marker-end="url(#ah)"/><path fill="none" stroke="#9333ea" stroke-width="1.3" stroke-opacity="0.8" d="M788.0,85.0 C804.0,85.0 772.0,55.0 788.0,55.0" marker-end="url(#ah)"/><rect fill="#3b82f6" x="200.0" y="45.0" width="12.0" height="20" rx="3"/><rect fill="#3b82f6" x="224.0" y="45.0" width="12.0" height="20" rx="3"/><rect fill="#3b82f6" x="248.0" y="45.0" width="36.0" height="20" rx="3"/><text fill="#ffffff" x="252.0" y="59.0">b2/…</text><rect fill="#3b82f6" x="260.0" y="75.0" width="12.0" height="20" rx="3"/><rect fill="#3b82f6" x="296.0" y="45.0" width="12.0" height="20" rx="3"/><rect fill="#3b82f6" x="308.0" y="75.0" width="36.0" height="20" rx="3"/><text fill="#ffffff" x="312.0" y="89.0">b1/…</text><rect fill="#3b82f6" x="320.0" y="45.0" width="120.0" height="20" rx="3"/><text fill="#ffffff" x="324.0" y="59.0">b2/rep1/thermal</text><rect fill="#3b82f6" x="356.0" y="75.0" width="12.0" height="20" rx="3"/><rect fill="#3b82f6" x="380.0" y="75.0" width="120.0" height="20" rx="3"/><text fill="#ffffff" x="384.0" y="89.0">b1/rep1/thermal</text><rect fill="#3b82f6" x="452.0" y="45.0" width="12.0" height="20" rx="3"/><rect fill="#3b82f6" x="476.0" y="45.0" width="12.0" height="20" rx="3"/><rect fill="#3b82f6" x="500.0" y="45.0" width="36.0" height="20" rx="3"/><text fill="#ffffff" x="504.0" y="59.0">b2/…</text><rect fill="#3b82f6" x="512.0" y="75.0" width="12.0" height="20" rx="3"/><rect fill="#3b82f6" x="536.0" y="75.0" width="12.0" height="20" rx="3"/><rect fill="#3b82f6" x="548.0" y="45.0" width="12.0" height="20" rx="3"/><rect fill="#3b82f6" x="560.0" y="75.0" width="36.0" height="20" rx="3"/><text fill="#ffffff" x="564.0" y="89.0">b1/…</text><rect fill="#3b82f6" x="572.0" y="45.0" width="120.0" height="20" rx="3"/><text fill="#ffffff" x="576.0" y="59.0">b2/rep2/thermal</text><rect fill="#3b82f6" x="608.0" y="75.0" width="12.0" height="20" rx="3"/><rect fill="#3b82f6" x="632.0" y="75.0" width="120.0" height="20" rx="3"/><text fill="#ffffff" x="636.0" y="89.0">b1/rep2/thermal</text><rect fill="#3b82f6" x="704.0" y="45.0" width="12.0" height="20" rx="3"/><rect fill="#3b82f6" x="764.0" y="75.0" width="12.0" height="20" rx="3"/><rect fill="#3b82f6" x="788.0" y="45.0" width="12.0" height="20" rx="3"/><rect fill="#f59e0b" x="212.0" y="45.0" width="12.0" height="20" rx="3"/><rect fill="#f59e0b" x="236.0" y="45.0" width="12.0" height="20" rx="3"/><rect fill="#f59e0b" x="248.0" y="75.0" width="12.0" height="20" rx="3"/><rect fill="#f59e0b" x="284.0" y="45.0" width="12.0" height="20" rx="3"/><rect fill="#f59e0b" x="296.0" y="75.0" width="12.0" height="20" rx="3"/><rect fill="#f59e0b" x="308.0" y="45.0" width="12.0" height="20" rx="3"/><rect fill="#f59e0b" x="344.0" y="75.0" width="12.0" height="20" rx="3"/><rect fill="#f59e0b" x="368.0" y="75.0" width="12.0" height="20" rx="3"/><rect fill="#f59e0b" x="440.0" y="45.0" width="12.0" height="20" rx="3"/><rect fill="#f59e0b" x="464.0" y="45.0" width="12.0" height="20" rx="3"/><rect fill="#f59e0b" x="488.0" y="45.0" width="12.0" height="20" rx="3"/><rect fill="#f59e0b" x="500.0" y="75.0" width="12.0" height="20" rx="3"/><rect fill="#f59e0b" x="524.0" y="75.0" width="12.0" height="20" rx="3"/><rect fill="#f59e0b" x="536.0" y="45.0" width="12.0" height="20" rx="3"/><rect fill="#f59e0b" x="548.0" y="75.0" width="12.0" height="20" rx="3"/><rect fill="#f59e0b" x="560.0" y="45.0" width="12.0" height="20" rx="3"/><rect fill="#f59e0b" x="596.0" y="75.0" width="12.0" height="20" rx="3"/><rect fill="#f59e0b" x="620.0" y="75.0" width="12.0" height="20" rx="3"/><rect fill="#f59e0b" x="692.0" y="45.0" width="12.0" height="20" rx="3"/><rect fill="#f59e0b" x="716.0" y="45.0" width="12.0" height="20" rx="3"/><rect fill="#f59e0b" x="752.0" y="75.0" width="12.0" height="20" rx="3"/><rect fill="#f59e0b" x="776.0" y="75.0" width="12.0" height="20" rx="3"/></g></svg>
