<?xml version="1.0" encoding="UTF-8"?>
<svg xmlns="http://www.w3.org/2000/svg" viewBox="0 0 1280 716" width="1280" height="716" font-family="system-ui, sans-serif" font-size="12"><rect fill="#ffffff" x="0" y="0" width="1280" height="716"/><text fill="#1a1a1a" font-size="15" font-weight="600" x="16" y="24">Schedule &#8212; workflow view</text><text fill="#666666" x="16" y="40">makespan 88 second</text><defs><marker id="ah" markerWidth="8" markerHeight="8" refX="7" refY="3" orient="auto"><path d="M0,0 L7,3 L0,6 Z" fill="#9333ea"/></marker></defs><g transform="translate(0,48)"><line stroke="#e3e3e3" stroke-width="1" x1="200.0" y1="34.0" x2="200.0" y2="640.0"/><text fill="#666666" x="200.0" y="28.0" text-anchor="middle">0</text><line stroke="#e3e3e3" stroke-width="1" x1="320.0" y1="34.0" x2="320.0" y2="640.0"/><text fill="#666666" x="320.0" y="28.0" text-anchor="middle">10</text><line stroke="#e3e3e3" stroke-width="1" x1="440.0" y1="34.0" x2="440.0" y2="640.0"/><text fill="#666666" x="440.0" y="28.0" text-anchor="middle">20</text><line stroke="#e3e3e3" stroke-width="1" x1="560.0" y1="34.0" x2="560.0" y2="640.0"/><text fill="#666666" x="560.0" y="28.0" text-anchor="middle">30</text><line stroke="#e3e3e3" stroke-width="1" x1="680.0" y1="34.0" x2="680.0" y2="640.0"/><text fill="#666666" x="680.0" y="28.0" text-anchor="middle">40</text><line stroke="#e3e3e3" stroke-width="1" x1="800.0" y1="34.0" x2="800.0" y2="640.0"/><text fill="#666666" x="800.0" y="28.0" text-anchor="middle">50</text><line stroke="#e3e3e3" stroke-width="1" x1="920.0" y1="34.0" x2="920.0" y2="640.0"/><text fill="#666666" x="920.0" y="28.0" text-anchor="middle">60</text><line stroke="#e3e3e3" stroke-width="1" x1="1040.0" y1="34.0" x2="1040.0" y2="640.0"/><text fill="#666666" x="1040.0" y="28.0" text-anchor="middle">70</text><line stroke="#e3e3e3" stroke-width="1" x1="1160.0" y1="34.0" x2="1160.0" y2="640.0"/><text fill="#666666" x="1160.0" y="28.0" text-anchor="middle">80</text><text fill="#666666" x="200.0" y="660.0">time (second)</text><line stroke="#f0f0f0" stroke-width="1" x1="0" y1="70.0" x2="1280.0" y2="70.0"/><text fill="#1a1a1a" x="190.0" y="59.0" text-anchor="end">Preparation</text><line stroke="#f0f0f0" stroke-width="1" x1="0" y1="100.0" x2="1280.0" y2="100.0"/><text fill="#1a1a1a" x="190.0" y="89.0" text-anchor="end">&gt; BiomekA3_24</text><line stroke="#f0f0f0" stroke-width="1" x1="0" y1="130.0" x2="1280.0" y2="130.0"/><text fill="#1a1a1a" x="190.0" y="119.0" text-anchor="end">&gt; Reformatter12</text><line stroke="#f0f0f0" stroke-width="1" x1="0" y1="160.0" x2="1280.0" y2="160.0"/><text fill="#1a1a1a" x="190.0" y="149.0" text-anchor="end">BiomekA3_24</text><line stroke="#f0f0f0" stroke-width="1" x1="0" y1="190.0" x2="1280.0" y2="190.0"/><text fill="#1a1a1a" x="190.0" y="179.0" text-anchor="end">&gt; Motoman7</text><line stroke="#f0f0f0" stroke-width="1" x1="0" y1="220.0" x2="1280.0" y2="220.0"/><text fill="#1a1a1a" x="190.0" y="209.0" text-anchor="end">Reformatter12</text><line stroke="#f0f0f0" stroke-width="1" x1="0" y1="250.0" x2="1280.0" y2="250.0"/><text fill="#1a1a1a" x="190.0" y="239.0" text-anchor="end">Motoman7</text><line stroke="#f0f0f0" stroke-width="1" x1="0" y1="280.0" x2="1280.0" y2="280.0"/><text fill="#1a1a1a" x="190.0" y="269.0" text-anchor="end">&gt; BiomekA4_16</text><line stroke="#f0f0f0" stroke-width="1" x1="0" y1="310.0" x2="1280.0" y2="310.0"/><text fill="#1a1a1a" x="190.0" y="299.0" text-anchor="end">&gt; Reformatter20</text><line stroke="#f0f0f0" stroke-width="1" x1="0" y1="340.0" x2="1280.0" y2="340.0"/><text fill="#1a1a1a" x="190.0" y="329.0" text-anchor="end">&gt; Reformatter20</text><line stroke="#f0f0f0" stroke-width="1" x1="0" y1="370.0" x2="1280.0" y2="370.0"/><text fill="#1a1a1a" x="190.0" y="359.0" text-anchor="end">&gt; BiomekA4_16</text><line stroke="#f0f0f0" stroke-width="1" x1="0" y1="400.0" x2="1280.0" y2="400.0"/><text fill="#1a1a1a" x="190.0" y="389.0" text-anchor="end">BiomekA4_16</text><line stroke="#f0f0f0" stroke-width="1" x1="0" y1="430.0" x2="1280.0" y2="430.0"/><text fill="#1a1a1a" x="190.0" y="419.0" text-anchor="end">&gt; Reformatter20</text><line stroke="#f0f0f0" stroke-width="1" x1="0" y1="460.0" x2="1280.0" y2="460.0"/><text fill="#1a1a1a" x="190.0" y="449.0" text-anchor="end">Reformatter20</text><line stroke="#f0f0f0" stroke-width="1" x1="0" y1="490.0" x2="1280.0" y2="490.0"/><text fill="#1a1a1a" x="190.0" y="479.0" text-anchor="end">&gt; Reformatter3</text><line stroke="#f0f0f0" stroke-width="1" x1="0" y1="520.0" x2="1280.0" y2="520.0"/><text fill="#1a1a1a" x="190.0" y="509.0" text-anchor="end">&gt; BiomekA3_19</text><line stroke="#f0f0f0" stroke-width="1" x1="0" y1="550.0" x2="1280.0" y2="550.0"/><text fill="#1a1a1a" x="190.0" y="539.0" text-anchor="end">&gt; Reformatter3</text><line stroke="#f0f0f0" stroke-width="1" x1="0" y1="580.0" x2="1280.0" y2="580.0"/><text fill="#1a1a1a" x="190.0" y="569.0" text-anchor="end">BiomekA3_19</text><line stroke="#f0f0f0" stroke-width="1" x1="0" y1="610.0" x2="1280.0" y2="610.0"/><text fill="#1a1a1a" x="190.0" y="599.0" text-anchor="end">&gt; Reformatter3</text><line stroke="#f0f0f0" stroke-width="1" x1="0" y1="640.0" x2="1280.0" y2="640.0"/><text fill="#1a1a1a" x="190.0" y="629.0" text-anchor="end">Reformatter3</text><path fill="none" stroke="#9333ea" stroke-width="1.3" stroke-opacity="0.8" d="M212.0,55.0 C228.0,55.0 196.0,85.0 212.0,85.0" marker-end="url(#ah)"/><path fill="none" stroke="#9333ea" stroke-width="1.3" stroke-opacity="0.8" d="M284.0,85.0 C300.0,85.0 268.0,145.0 284.0,145.0" marker-end="url(#ah)"/><path fill="none" stroke="#9333ea" stroke-width="1.3" stroke-opacity="0.8" d="M212.0,55.0 C228.0,55.0 268.0,115.0 284.0,115.0" marker-end="url(#ah)"/><path fill="none" stroke="#9333ea" stroke-width="1.3" stroke-opacity="0.8" d="M308.0,115.0 C324.0,115.0 292.0,205.0 308.0,205.0" marker-end="url(#ah)"/><path fill="none" stroke="#9333ea" stroke-width="1.3" stroke-opacity="0.8" d="M212.0,55.0 C228.0,55.0 292.0,175.0 308.0,175.0" marker-end="url(#ah)"/><path fill="none" stroke="#9333ea" stroke-width="1.3" stroke-opacity="0.8" d="M344.0,175.0 C360.0,175.0 328.0,235.0 344.0,235.0" marker-end="url(#ah)"/><path fill="none" stroke="#9333ea" stroke-width="1.3" stroke-opacity="0.8" d="M428.0,235.0 C444.0,235.0 412.0,265.0 428.0,265.0" marker-end="url(#ah)"/><path fill="none" stroke="#9333ea" stroke-width="1.3" stroke-opacity="0.8" d="M464.0,265.0 C480.0,265.0 496.0,385.0 512.0,385.0" marker-end="url(#ah)"/><path fill="none" stroke="#9333ea" stroke-width="1.3" stroke-opacity="0.8" d="M452.0,205.0 C468.0,205.0 448.0,295.0 464.0,295.0" marker-end="url(#ah)"/><path fill="none" stroke="#9333ea" stroke-width="1.3" stroke-opacity="0.8" d="M464.0,295.0 C480.0,295.0 616.0,445.0 632.0,445.0" marker-end="url(#ah)"/><path fill="none" stroke="#9333ea" stroke-width="1.3" stroke-opacity="0.8" d="M428.0,235.0 C444.0,235.0 448.0,325.0 464.0,325.0" marker-end="url(#ah)"/><path fill="none" stroke="#9333ea" stroke-width="1.3" stroke-opacity="0.8" d="M488.0,325.0 C504.0,325.0 616.0,445.0 632.0,445.0" marker-end="url(#ah)"/><path fill="none" stroke="#9333ea" stroke-width="1.3" stroke-opacity="0.8" d="M452.0,205.0 C468.0,205.0 472.0,355.0 488.0,355.0" marker-end="url(#ah)"/><path fill="none" stroke="#9333ea" stroke-width="1.3" stroke-opacity="0.8" d="M512.0,355.0 C528.0,355.0 496.0,385.0 512.0,385.0" marker-end="url(#ah)"/><path fill="none" stroke="#9333ea" stroke-width="1.3" stroke-opacity="0.8" d="M572.0,145.0 C588.0,145.0 556.0,415.0 572.0,415.0" marker-end="url(#ah)"/><path fill="none" stroke="#9333ea" stroke-width="1.3" stroke-opacity="0.8" d="M632.0,415.0 C648.0,415.0 616.0,445.0 632.0,445.0" marker-end="url(#ah)"/><path fill="none" stroke="#9333ea" stroke-width="1.3" stroke-opacity="0.8" d="M872.0,445.0 C888.0,445.0 856.0,475.0 872.0,475.0" marker-end="url(#ah)"/><path fill="none" stroke="#9333ea" stroke-width="1.3" stroke-opacity="0.8" d="M872.0,475.0 C888.0,475.0 1204.0,625.0 1220.0,625.0" marker-end="url(#ah)"/><path fill="none" stroke="#9333ea" stroke-width="1.3" stroke-opacity="0.8" d="M872.0,445.0 C888.0,445.0 856.0,505.0 872.0,505.0" marker-end="url(#ah)"/><path fill="none" stroke="#9333ea" stroke-width="1.3" stroke-opacity="0.8" d="M932.0,505.0 C948.0,505.0 916.0,565.0 932.0,565.0" marker-end="url(#ah)"/><path fill="none" stroke="#9333ea" stroke-width="1.3" stroke-opacity="0.8" d="M704.0,385.0 C720.0,385.0 916.0,535.0 932.0,535.0" marker-end="url(#ah)"/><path fill="none" stroke="#9333ea" stroke-width="1.3" stroke-opacity="0.8" d="M956.0,535.0 C972.0,535.0 1204.0,625.0 1220.0,625.0" marker-end="url(#ah)"/><path fill="none" stroke="#9333ea" stroke-width="1.3" stroke-opacity="0.8" d="M1160.0,565.0 C1176.0,565.0 1144.0,595.0 1160.0,595.0" marker-end="url(#ah)"/><path fill="none" stroke="#9333ea" stroke-width="1.3" stroke-opacity="0.8" d="M1220.0,595.0 C1236.0,595.0 1204.0,625.0 1220.0,625.0" marker-end="url(#ah)"/><rect fill="#3b82f6" x="200.0" y="45.0" width="12.0" height="20" rx="3"/><rect fill="#f59e0b" x="212.0" y="75.0" width="72.0" height="20" rx="3"/><text fill="#3a2a00" x="216.0" y="89.0">&gt; Biomek…</text><rect fill="#f59e0b" x="284.0" y="105.0" width="24.0" height="20" rx="3"/><rect fill="#3b82f6" x="284.0" y="135.0" width="288.0" height="20" rx="3"/><text fill="#ffffff" x="288.0" y="149.0">BiomekA3_24</text><rect fill="#f59e0b" x="308.0" y="165.0" width="36.0" height="20" rx="3"/><text fill="#3a2a00" x="312.0" y="179.0">&gt; M…</text><rect fill="#3b82f6" x="308.0" y="195.0" width="144.0" height="20" rx="3"/><text fill="#ffffff" x="312.0" y="209.0">Reformatter12</text><rect fill="#3b82f6" x="344.0" y="225.0" width="84.0" height="20" rx="3"/><text fill="#ffffff" x="348.0" y="239.0">Motoman7</text><rect fill="#f59e0b" x="428.0" y="255.0" width="36.0" height="20" rx="3"/><text fill="#3a2a00" x="432.0" y="269.0">&gt; B…</text><rect fill="#f59e0b" x="464.0" y="285.0" width="2.0" height="20" rx="3"/><rect fill="#f59e0b" x="464.0" y="315.0" width="24.0" height="20" rx="3"/><rect fill="#f59e0b" x="488.0" y="345.0" width="24.0" height="20" rx="3"/><rect fill="#3b82f6" x="512.0" y="375.0" width="192.0" height="20" rx="3"/><text fill="#ffffff" x="516.0" y="389.0">BiomekA4_16</text><rect fill="#f59e0b" x="572.0" y="405.0" width="60.0" height="20" rx="3"/><text fill="#3a2a00" x="576.0" y="419.0">&gt; Refor…</text><rect fill="#3b82f6" x="632.0" y="435.0" width="240.0" height="20" rx="3"/><text fill="#ffffff" x="636.0" y="449.0">Reformatter20</text><rect fill="#f59e0b" x="872.0" y="465.0" width="2.0" height="20" rx="3"/><rect fill="#f59e0b" x="872.0" y="495.0" width="60.0" height="20" rx="3"/><text fill="#3a2a00" x="876.0" y="509.0">&gt; Biome…</text><rect fill="#f59e0b" x="932.0" y="525.0" width="24.0" height="20" rx="3"/><rect fill="#3b82f6" x="932.0" y="555.0" width="228.0" height="20" rx="3"/><text fill="#ffffff" x="936.0" y="569.0">BiomekA3_19</text><rect fill="#f59e0b" x="1160.0" y="585.0" width="60.0" height="20" rx="3"/><text fill="#3a2a00" x="1164.0" y="599.0">&gt; Refor…</text><rect fill="#3b82f6" x="1220.0" y="615.0" width="36.0" height="20" rx="3"/><text fill="#ffffff" x="1224.0" y="629.0">Ref…</text></g></svg>
