<?xml version="1.0" encoding="UTF-8"?>
<svg xmlns="http://www.w3.org/2000/svg" viewBox="0 0 1280 296" width="1280" height="296" font-family="system-ui, sans-serif" font-size="12"><text fill="#1a1a1a" font-size="15" font-weight="600" x="16" y="24">Schedule &#8212; device view</text><text fill="#666666" x="16" y="40">makespan 88 second</text><defs><marker id="ah" markerWidth="8" markerHeight="8" refX="7" refY="3" orient="auto"><path d="M0,0 L7,3 L0,6 Z" fill="#9333ea"/></marker></defs><g transform="translate(0,48)"><line stroke="#b3b3b3" stroke-width="1" x1="200.0" y1="34.0" x2="200.0" y2="220.0"/><text fill="#666666" x="200.0" y="28.0" text-anchor="middle">0</text><line stroke="#b3b3b3" stroke-width="1" x1="320.0" y1="34.0" x2="320.0" y2="220.0"/><text fill="#666666" x="320.0" y="28.0" text-anchor="middle">10</text><line stroke="#b3b3b3" stroke-width="1" x1="440.0" y1="34.0" x2="440.0" y2="220.0"/><text fill="#666666" x="440.0" y="28.0" text-anchor="middle">20</text><line stroke="#b3b3b3" stroke-width="1" x1="560.0" y1="34.0" x2="560.0" y2="220.0"/><text fill="#666666" x="560.0" y="28.0" text-anchor="middle">30</text><line stroke="#b3b3b3" stroke-width="1" x1="680.0" y1="34.0" x2="680.0" y2="220.0"/><text fill="#666666" x="680.0" y="28.0" text-anchor="middle">40</text><line stroke="#b3b3b3" stroke-width="1" x1="800.0" y1="34.0" x2="800.0" y2="220.0"/><text fill="#666666" x="800.0" y="28.0" text-anchor="middle">50</text><line stroke="#b3b3b3" stroke-width="1" x1="920.0" y1="34.0" x2="920.0" y2="220.0"/><text fill="#666666" x="920.0" y="28.0" text-anchor="middle">60</text><line stroke="#b3b3b3" stroke-width="1" x1="1040.0" y1="34.0" x2="1040.0" y2="220.0"/><text fill="#666666" x="1040.0" y="28.0" text-anchor="middle">70</text><line stroke="#b3b3b3" stroke-width="1" x1="1160.0" y1="34.0" x2="1160.0" y2="220.0"/><text fill="#666666" x="1160.0" y="28.0" text-anchor="middle">80</text><text fill="#666666" x="200.0" y="240.0">time (second)</text><line stroke="#d9d9d9" stroke-width="1" x1="0" y1="70.0" x2="1280.0" y2="70.0"/><text fill="#1a1a1a" x="190.0" y="59.0" text-anchor="end">biomek2000_a3</text><line stroke="#d9d9d9" stroke-width="1" x1="0" y1="100.0" x2="1280.0" y2="100.0"/><text fill="#1a1a1a" x="190.0" y="89.0" text-anchor="end">biomek2000_a4</text><line stroke="#d9d9d9" stroke-width="1" x1="0" y1="130.0" x2="1280.0" y2="130.0"/><text fill="#1a1a1a" x="190.0" y="119.0" text-anchor="end">motoman</text><line stroke="#d9d9d9" stroke-width="1" x1="0" y1="160.0" x2="1280.0" y2="160.0"/><text fill="#1a1a1a" x="190.0" y="149.0" text-anchor="end">prep</text><line stroke="#d9d9d9" stroke-width="1" x1="0" y1="190.0" x2="1280.0" y2="190.0"/><text fill="#1a1a1a" x="190.0" y="179.0" text-anchor="end">reformatter</text><line stroke="#d9d9d9" stroke-width="1" x1="0" y1="220.0" x2="1280.0" y2="220.0"/><text fill="#1a1a1a" x="190.0" y="209.0" text-anchor="end">transport (transporter)</text><rect fill="#3b82f6" x="200.0" y="135.0" width="12.0" height="20" rx="3"/><rect fill="#f59e0b" x="212.0" y="195.0" width="72.0" height="20" rx="3"/><text fill="#3a2a00" x="216.0" y="209.0">&gt; Biomek…</text><rect fill="#f59e0b" fill-opacity="0.2" x="212.0" y="135.0" width="72.0" height="20" rx="3"/><rect fill="#f59e0b" fill-opacity="0.2" x="212.0" y="45.0" width="72.0" height="20" rx="3"/><rect fill="#3b82f6" x="284.0" y="45.0" width="288.0" height="20" rx="3"/><text fill="#ffffff" x="288.0" y="59.0">BiomekA3_24</text><rect fill="#f59e0b" x="296.0" y="195.0" width="24.0" height="20" rx="3"/><rect fill="#f59e0b" fill-opacity="0.2" x="296.0" y="135.0" width="24.0" height="20" rx="3"/><rect fill="#f59e0b" fill-opacity="0.2" x="296.0" y="165.0" width="24.0" height="20" rx="3"/><rect fill="#f59e0b" x="320.0" y="195.0" width="36.0" height="20" rx="3"/><text fill="#3a2a00" x="324.0" y="209.0">&gt; M…</text><rect fill="#f59e0b" fill-opacity="0.2" x="320.0" y="135.0" width="36.0" height="20" rx="3"/><rect fill="#f59e0b" fill-opacity="0.2" x="320.0" y="105.0" width="36.0" height="20" rx="3"/><rect fill="#3b82f6" x="320.0" y="165.0" width="144.0" height="20" rx="3"/><text fill="#ffffff" x="324.0" y="179.0">Reformatter12</text><rect fill="#3b82f6" x="356.0" y="105.0" width="84.0" height="20" rx="3"/><text fill="#ffffff" x="360.0" y="119.0">Motoman7</text><rect fill="#f59e0b" x="440.0" y="195.0" width="36.0" height="20" rx="3"/><text fill="#3a2a00" x="444.0" y="209.0">&gt; B…</text><rect fill="#f59e0b" fill-opacity="0.2" x="440.0" y="105.0" width="36.0" height="20" rx="3"/><rect fill="#f59e0b" fill-opacity="0.2" x="440.0" y="75.0" width="36.0" height="20" rx="3"/><rect fill="#f59e0b" x="476.0" y="195.0" width="2.0" height="20" rx="3"/><rect fill="#f59e0b" fill-opacity="0.2" x="476.0" y="165.0" width="2.0" height="20" rx="3"/><rect fill="#f59e0b" fill-opacity="0.2" x="476.0" y="165.0" width="2.0" height="20" rx="3"/><rect fill="#f59e0b" x="476.0" y="195.0" width="24.0" height="20" rx="3"/><rect fill="#f59e0b" fill-opacity="0.2" x="476.0" y="165.0" width="24.0" height="20" rx="3"/><rect fill="#f59e0b" fill-opacity="0.2" x="476.0" y="75.0" width="24.0" height="20" rx="3"/><rect fill="#f59e0b" x="500.0" y="195.0" width="24.0" height="20" rx="3"/><rect fill="#f59e0b" fill-opacity="0.2" x="500.0" y="105.0" width="24.0" height="20" rx="3"/><rect fill="#f59e0b" fill-opacity="0.2" x="500.0" y="165.0" width="24.0" height="20" rx="3"/><rect fill="#3b82f6" x="500.0" y="75.0" width="192.0" height="20" rx="3"/><text fill="#ffffff" x="504.0" y="89.0">BiomekA4_16</text><rect fill="#f59e0b" x="572.0" y="195.0" width="60.0" height="20" rx="3"/><text fill="#3a2a00" x="576.0" y="209.0">&gt; Refor…</text><rect fill="#f59e0b" fill-opacity="0.2" x="572.0" y="45.0" width="60.0" height="20" rx="3"/><rect fill="#f59e0b" fill-opacity="0.2" x="572.0" y="165.0" width="60.0" height="20" rx="3"/><rect fill="#3b82f6" x="632.0" y="165.0" width="240.0" height="20" rx="3"/><text fill="#ffffff" x="636.0" y="179.0">Reformatter20</text><rect fill="#f59e0b" x="872.0" y="195.0" width="60.0" height="20" rx="3"/><text fill="#3a2a00" x="876.0" y="209.0">&gt; Biome…</text><rect fill="#f59e0b" fill-opacity="0.2" x="872.0" y="165.0" width="60.0" height="20" rx="3"/><rect fill="#f59e0b" fill-opacity="0.2" x="872.0" y="45.0" width="60.0" height="20" rx="3"/><rect fill="#3b82f6" x="932.0" y="45.0" width="228.0" height="20" rx="3"/><text fill="#ffffff" x="936.0" y="59.0">BiomekA3_19</text><rect fill="#f59e0b" x="944.0" y="195.0" width="2.0" height="20" rx="3"/><rect fill="#f59e0b" fill-opacity="0.2" x="944.0" y="165.0" width="2.0" height="20" rx="3"/><rect fill="#f59e0b" fill-opacity="0.2" x="944.0" y="165.0" width="2.0" height="20" rx="3"/><rect fill="#f59e0b" x="968.0" y="195.0" width="24.0" height="20" rx="3"/><rect fill="#f59e0b" fill-opacity="0.2" x="968.0" y="75.0" width="24.0" height="20" rx="3"/><rect fill="#f59e0b" fill-opacity="0.2" x="968.0" y="165.0" width="24.0" height="20" rx="3"/><rect fill="#f59e0b" x="1160.0" y="195.0" width="60.0" height="20" rx="3"/><text fill="#3a2a00" x="1164.0" y="209.0">&gt; Refor…</text><rect fill="#f59e0b" fill-opacity="0.2" x="1160.0" y="45.0" width="60.0" height="20" rx="3"/><rect fill="#f59e0b" fill-opacity="0.2" x="1160.0" y="165.0" width="60.0" height="20" rx="3"/><rect fill="#3b82f6" x="1220.0" y="165.0" width="36.0" height="20" rx="3"/><text fill="#ffffff" x="1224.0" y="179.0">Ref…</text></g></svg>
