<?xml version="1.0" encoding="UTF-8"?>
<svg xmlns="http://www.w3.org/2000/svg" viewBox="0 0 784 146" width="784" height="146" font-family="system-ui, sans-serif" font-size="12"><text fill="#1a1a1a" font-size="15" font-weight="600" x="16" y="24">Schedule &#8212; lane view</text><text fill="#666666" x="16" y="40">makespan 14 second</text><defs><marker id="ah" markerWidth="8" markerHeight="8" refX="7" refY="3" orient="auto"><path d="M0,0 L7,3 L0,6 Z" fill="#9333ea"/></marker></defs><g transform="translate(0,48)"><line stroke="#b3b3b3" stroke-width="1" x1="200.0" y1="34.0" x2="200.0" y2="70.0"/><text fill="#666666" x="200.0" y="28.0" text-anchor="middle">0</text><line stroke="#b3b3b3" stroke-width="1" x1="280.0" y1="34.0" x2="280.0" y2="70.0"/><text fill="#666666" x="280.0" y="28.0" text-anchor="middle">2</text><line stroke="#b3b3b3" stroke-width="1" x1="360.0" y1="34.0" x2="360.0" y2="70.0"/><text fill="#666666" x="360.0" y="28.0" text-anchor="middle">4</text><line stroke="#b3b3b3" stroke-width="1" x1="440.0" y1="34.0" x2="440.0" y2="70.0"/><text fill="#666666" x="440.0" y="28.0" text-anchor="middle">6</text><line stroke="#b3b3b3" stroke-width="1" x1="520.0" y1="34.0" x2="520.0" y2="70.0"/><text fill="#666666" x="520.0" y="28.0" text-anchor="middle">8</text><line stroke="#b3b3b3" stroke-width="1" x1="600.0" y1="34.0" x2="600.0" y2="70.0"/><text fill="#666666" x="600.0" y="28.0" text-anchor="middle">10</text><line stroke="#b3b3b3" stroke-width="1" x1="680.0" y1="34.0" x2="680.0" y2="70.0"/><text fill="#666666" x="680.0" y="28.0" text-anchor="middle">12</text><line stroke="#b3b3b3" stroke-width="1" x1="760.0" y1="34.0" x2="760.0" y2="70.0"/><text fill="#666666" x="760.0" y="28.0" text-anchor="middle">14</text><text fill="#666666" x="200.0" y="90.0">time (second)</text><line stroke="#d9d9d9" stroke-width="1" x1="0" y1="70.0" x2="784.0" y2="70.0"/><text fill="#1a1a1a" x="190.0" y="59.0" text-anchor="end">lane 1</text><line stroke="#dc2626" stroke-width="1.5" stroke-dasharray="4 3" x1="600.0" y1="34.0" x2="600.0" y2="70.0"/><text fill="#dc2626" x="603.0" y="28.0">now=10</text><path fill="none" stroke="#9333ea" stroke-width="1.3" stroke-opacity="0.8" d="M280.0,55.0 C296.0,55.0 264.0,55.0 280.0,55.0" marker-end="url(#ah)"/><path fill="none" stroke="#9333ea" stroke-width="1.3" stroke-opacity="0.8" d="M320.0,55.0 C336.0,55.0 664.0,55.0 680.0,55.0" marker-end="url(#ah)"/><path fill="none" stroke="#9333ea" stroke-width="1.3" stroke-opacity="0.8" d="M280.0,55.0 C296.0,55.0 384.0,55.0 400.0,55.0" marker-end="url(#ah)"/><path fill="none" stroke="#9333ea" stroke-width="1.3" stroke-opacity="0.8" d="M560.0,55.0 C576.0,55.0 664.0,55.0 680.0,55.0" marker-end="url(#ah)"/><path fill="none" stroke="#9333ea" stroke-width="1.3" stroke-opacity="0.8" d="M280.0,55.0 C296.0,55.0 584.0,55.0 600.0,55.0" marker-end="url(#ah)"/><path fill="none" stroke="#9333ea" stroke-width="1.3" stroke-opacity="0.8" d="M680.0,55.0 C696.0,55.0 664.0,55.0 680.0,55.0" marker-end="url(#ah)"/><rect fill="#3b82f6" x="200.0" y="45.0" width="80.0" height="20" rx="3"/><text fill="#ffffff" x="204.0" y="59.0">SampleSour…</text><rect fill="#3b82f6" x="680.0" y="45.0" width="80.0" height="20" rx="3"/><text fill="#ffffff" x="684.0" y="59.0">SampleTarg…</text><rect fill="#f59e0b" x="280.0" y="45.0" width="40.0" height="20" rx="3"/><text fill="#3a2a00" x="284.0" y="59.0">&gt; S…</text><rect fill="#f59e0b" x="400.0" y="45.0" width="160.0" height="20" rx="3"/><text fill="#3a2a00" x="404.0" y="59.0">&gt; SampleTarget</text><rect fill="#f59e0b" x="600.0" y="45.0" width="80.0" height="20" rx="3"/><text fill="#3a2a00" x="604.0" y="59.0">&gt; SampleTa…</text></g></svg>
