<?xml version="1.0" encoding="UTF-8"?>
<svg xmlns="http://www.w3.org/2000/svg" viewBox="0 0 784 146" width="784" height="146" font-family="system-ui, sans-serif" font-size="12"><text fill="#1a1a1a" font-size="15" font-weight="600" x="16" y="24">Schedule &#8212; lane view</text><text fill="#666666" x="16" y="40">makespan 11 second</text><defs><marker id="ah" markerWidth="8" markerHeight="8" refX="7" refY="3" orient="auto"><path d="M0,0 L7,3 L0,6 Z" fill="#9333ea"/></marker></defs><g transform="translate(0,48)"><line stroke="#b3b3b3" stroke-width="1" x1="200.0" y1="34.0" x2="200.0" y2="70.0"/><text fill="#666666" x="200.0" y="28.0" text-anchor="middle">0</text><line stroke="#b3b3b3" stroke-width="1" x1="301.8" y1="34.0" x2="301.8" y2="70.0"/><text fill="#666666" x="301.8" y="28.0" text-anchor="middle">2</text><line stroke="#b3b3b3" stroke-width="1" x1="403.6" y1="34.0" x2="403.6" y2="70.0"/><text fill="#666666" x="403.6" y="28.0" text-anchor="middle">4</text><line stroke="#b3b3b3" stroke-width="1" x1="505.5" y1="34.0" x2="505.5" y2="70.0"/><text fill="#666666" x="505.5" y="28.0" text-anchor="middle">6</text><line stroke="#b3b3b3" stroke-width="1" x1="607.3" y1="34.0" x2="607.3" y2="70.0"/><text fill="#666666" x="607.3" y="28.0" text-anchor="middle">8</text><line stroke="#b3b3b3" stroke-width="1" x1="709.1" y1="34.0" x2="709.1" y2="70.0"/><text fill="#666666" x="709.1" y="28.0" text-anchor="middle">10</text><text fill="#666666" x="200.0" y="90.0">time (second)</text><line stroke="#d9d9d9" stroke-width="1" x1="0" y1="70.0" x2="784.0" y2="70.0"/><text fill="#1a1a1a" x="190.0" y="59.0" text-anchor="end">lane 1</text><line stroke="#dc2626" stroke-width="1.5" stroke-dasharray="4 3" x1="454.5" y1="34.0" x2="454.5" y2="70.0"/><text fill="#dc2626" x="457.5" y="28.0">now=5</text><path fill="none" stroke="#9333ea" stroke-width="1.3" stroke-opacity="0.8" d="M301.8,55.0 C317.8,55.0 285.8,55.0 301.8,55.0" marker-end="url(#ah)"/><path fill="none" stroke="#9333ea" stroke-width="1.3" stroke-opacity="0.8" d="M352.7,55.0 C368.7,55.0 642.2,55.0 658.2,55.0" marker-end="url(#ah)"/><path fill="none" stroke="#9333ea" stroke-width="1.3" stroke-opacity="0.8" d="M301.8,55.0 C317.8,55.0 438.5,55.0 454.5,55.0" marker-end="url(#ah)"/><path fill="none" stroke="#9333ea" stroke-width="1.3" stroke-opacity="0.8" d="M658.2,55.0 C674.2,55.0 642.2,55.0 658.2,55.0" marker-end="url(#ah)"/><rect fill="#3b82f6" x="200.0" y="45.0" width="101.8" height="20" rx="3"/><text fill="#ffffff" x="204.0" y="59.0">SampleSource</text><rect fill="#3b82f6" x="658.2" y="45.0" width="101.8" height="20" rx="3"/><text fill="#ffffff" x="662.2" y="59.0">SampleTarget</text><rect fill="#f59e0b" x="301.8" y="45.0" width="50.9" height="20" rx="3"/><text fill="#3a2a00" x="305.8" y="59.0">&gt; Sam…</text><rect fill="#f59e0b" x="454.5" y="45.0" width="203.6" height="20" rx="3"/><text fill="#3a2a00" x="458.5" y="59.0">&gt; SampleTarget</text></g></svg>
