<?xml version="1.0" encoding="UTF-8"?>
<svg xmlns="http://www.w3.org/2000/svg" viewBox="0 0 784 146" width="784" height="146" font-family="system-ui, sans-serif" font-size="12"><text fill="#1a1a1a" font-size="15" font-weight="600" x="16" y="24">Schedule &#8212; lane view</text><text fill="#666666" x="16" y="40">makespan 6 second</text><defs><marker id="ah" markerWidth="8" markerHeight="8" refX="7" refY="3" orient="auto"><path d="M0,0 L7,3 L0,6 Z" fill="#9333ea"/></marker></defs><g transform="translate(0,48)"><line stroke="#b3b3b3" stroke-width="1" x1="200.0" y1="34.0" x2="200.0" y2="70.0"/><text fill="#666666" x="200.0" y="28.0" text-anchor="middle">0</text><line stroke="#b3b3b3" stroke-width="1" x1="293.3" y1="34.0" x2="293.3" y2="70.0"/><text fill="#666666" x="293.3" y="28.0" text-anchor="middle">1</text><line stroke="#b3b3b3" stroke-width="1" x1="386.7" y1="34.0" x2="386.7" y2="70.0"/><text fill="#666666" x="386.7" y="28.0" text-anchor="middle">2</text><line stroke="#b3b3b3" stroke-width="1" x1="480.0" y1="34.0" x2="480.0" y2="70.0"/><text fill="#666666" x="480.0" y="28.0" text-anchor="middle">3</text><line stroke="#b3b3b3" stroke-width="1" x1="573.3" y1="34.0" x2="573.3" y2="70.0"/><text fill="#666666" x="573.3" y="28.0" text-anchor="middle">4</text><line stroke="#b3b3b3" stroke-width="1" x1="666.7" y1="34.0" x2="666.7" y2="70.0"/><text fill="#666666" x="666.7" y="28.0" text-anchor="middle">5</text><line stroke="#b3b3b3" stroke-width="1" x1="760.0" y1="34.0" x2="760.0" y2="70.0"/><text fill="#666666" x="760.0" y="28.0" text-anchor="middle">6</text><text fill="#666666" x="200.0" y="90.0">time (second)</text><line stroke="#d9d9d9" stroke-width="1" x1="0" y1="70.0" x2="784.0" y2="70.0"/><text fill="#1a1a1a" x="190.0" y="59.0" text-anchor="end">lane 1</text><line stroke="#dc2626" stroke-width="1.5" stroke-dasharray="4 3" x1="480.0" y1="34.0" x2="480.0" y2="70.0"/><text fill="#dc2626" x="483.0" y="28.0">now=3</text><path fill="none" stroke="#9333ea" stroke-width="1.3" stroke-opacity="0.8" d="M386.7,55.0 C402.7,55.0 464.0,55.0 480.0,55.0" marker-end="url(#ah)"/><path fill="none" stroke="#9333ea" stroke-width="1.3" stroke-opacity="0.8" d="M573.3,55.0 C589.3,55.0 557.3,55.0 573.3,55.0" marker-end="url(#ah)"/><rect fill="#3b82f6" x="200.0" y="45.0" width="186.7" height="20" rx="3"/><text fill="#ffffff" x="204.0" y="59.0">SampleSource</text><rect fill="#3b82f6" x="573.3" y="45.0" width="186.7" height="20" rx="3"/><text fill="#ffffff" x="577.3" y="59.0">SampleTarget</text><rect fill="#f59e0b" x="480.0" y="45.0" width="93.3" height="20" rx="3"/><text fill="#3a2a00" x="484.0" y="59.0">&gt; SampleTarg…</text></g></svg>
