<?xml version="1.0" encoding="UTF-8"?>
<svg xmlns="http://www.w3.org/2000/svg" viewBox="0 0 784 296" width="784" height="296" font-family="system-ui, sans-serif" font-size="12"><text fill="#1a1a1a" font-size="15" font-weight="600" x="16" y="24">Schedule &#8212; device view</text><text fill="#666666" x="16" y="40">makespan 20 second</text><defs><marker id="ah" markerWidth="8" markerHeight="8" refX="7" refY="3" orient="auto"><path d="M0,0 L7,3 L0,6 Z" fill="#9333ea"/></marker></defs><g transform="translate(0,48)"><line stroke="#b3b3b3" stroke-width="1" x1="200.0" y1="34.0" x2="200.0" y2="220.0"/><text fill="#666666" x="200.0" y="28.0" text-anchor="middle">0</text><line stroke="#b3b3b3" stroke-width="1" x1="256.0" y1="34.0" x2="256.0" y2="220.0"/><text fill="#666666" x="256.0" y="28.0" text-anchor="middle">2</text><line stroke="#b3b3b3" stroke-width="1" x1="312.0" y1="34.0" x2="312.0" y2="220.0"/><text fill="#666666" x="312.0" y="28.0" text-anchor="middle">4</text><line stroke="#b3b3b3" stroke-width="1" x1="368.0" y1="34.0" x2="368.0" y2="220.0"/><text fill="#666666" x="368.0" y="28.0" text-anchor="middle">6</text><line stroke="#b3b3b3" stroke-width="1" x1="424.0" y1="34.0" x2="424.0" y2="220.0"/><text fill="#666666" x="424.0" y="28.0" text-anchor="middle">8</text><line stroke="#b3b3b3" stroke-width="1" x1="480.0" y1="34.0" x2="480.0" y2="220.0"/><text fill="#666666" x="480.0" y="28.0" text-anchor="middle">10</text><line stroke="#b3b3b3" stroke-width="1" x1="536.0" y1="34.0" x2="536.0" y2="220.0"/><text fill="#666666" x="536.0" y="28.0" text-anchor="middle">12</text><line stroke="#b3b3b3" stroke-width="1" x1="592.0" y1="34.0" x2="592.0" y2="220.0"/><text fill="#666666" x="592.0" y="28.0" text-anchor="middle">14</text><line stroke="#b3b3b3" stroke-width="1" x1="648.0" y1="34.0" x2="648.0" y2="220.0"/><text fill="#666666" x="648.0" y="28.0" text-anchor="middle">16</text><line stroke="#b3b3b3" stroke-width="1" x1="704.0" y1="34.0" x2="704.0" y2="220.0"/><text fill="#666666" x="704.0" y="28.0" text-anchor="middle">18</text><line stroke="#b3b3b3" stroke-width="1" x1="760.0" y1="34.0" x2="760.0" y2="220.0"/><text fill="#666666" x="760.0" y="28.0" text-anchor="middle">20</text><text fill="#666666" x="200.0" y="240.0">time (second)</text><line stroke="#d9d9d9" stroke-width="1" x1="0" y1="70.0" x2="784.0" y2="70.0"/><text fill="#1a1a1a" x="190.0" y="59.0" text-anchor="end">station_a1</text><line stroke="#d9d9d9" stroke-width="1" x1="0" y1="100.0" x2="784.0" y2="100.0"/><text fill="#1a1a1a" x="190.0" y="89.0" text-anchor="end">station_a2</text><line stroke="#d9d9d9" stroke-width="1" x1="0" y1="130.0" x2="784.0" y2="130.0"/><text fill="#1a1a1a" x="190.0" y="119.0" text-anchor="end">station_b1</text><line stroke="#d9d9d9" stroke-width="1" x1="0" y1="160.0" x2="784.0" y2="160.0"/><text fill="#1a1a1a" x="190.0" y="149.0" text-anchor="end">station_b2</text><line stroke="#d9d9d9" stroke-width="1" x1="0" y1="190.0" x2="784.0" y2="190.0"/><text fill="#1a1a1a" x="190.0" y="179.0" text-anchor="end">arm0 (transporter)</text><line stroke="#d9d9d9" stroke-width="1" x1="0" y1="220.0" x2="784.0" y2="220.0"/><text fill="#1a1a1a" x="190.0" y="209.0" text-anchor="end">arm1 (transporter)</text><rect fill="#3b82f6" x="200.0" y="45.0" width="140.0" height="20" rx="3"/><text fill="#ffffff" x="204.0" y="59.0">SourceA</text><rect fill="#3b82f6" x="200.0" y="105.0" width="140.0" height="20" rx="3"/><text fill="#ffffff" x="204.0" y="119.0">SourceB</text><rect fill="#f59e0b" x="340.0" y="195.0" width="196.0" height="20" rx="3"/><text fill="#3a2a00" x="344.0" y="209.0">&gt; TargetA</text><rect fill="#f59e0b" fill-opacity="0.2" x="340.0" y="45.0" width="196.0" height="20" rx="3"/><rect fill="#f59e0b" fill-opacity="0.2" x="340.0" y="75.0" width="196.0" height="20" rx="3"/><rect fill="#f59e0b" x="340.0" y="165.0" width="280.0" height="20" rx="3"/><text fill="#3a2a00" x="344.0" y="179.0">&gt; TargetB</text><rect fill="#f59e0b" fill-opacity="0.2" x="340.0" y="105.0" width="280.0" height="20" rx="3"/><rect fill="#f59e0b" fill-opacity="0.2" x="340.0" y="135.0" width="280.0" height="20" rx="3"/><rect fill="#3b82f6" x="536.0" y="75.0" width="140.0" height="20" rx="3"/><text fill="#ffffff" x="540.0" y="89.0">TargetA</text><rect fill="#3b82f6" x="620.0" y="135.0" width="140.0" height="20" rx="3"/><text fill="#ffffff" x="624.0" y="149.0">TargetB</text></g></svg>
